<svg width="120" height="120" viewBox="0 0 120 120" fill="none" xmlns="http://www.w3.org/2000/svg">
<path d="M0 0L0 120L120 120L120 0L0 0Z" fill="#4E50CE"/>
<path d="M52.4886 80.2279L47.204 79.8929C46.1904 78.4087 44.9008 77.1193 43.3885 76.0687L43.255 70.9037C42.3029 70.4482 41.3201 70.0488 40.2726 69.7463C39.2252 69.4437 38.1807 69.2576 37.1324 69.1353L34.2655 73.4337C32.4279 73.5095 30.6475 73.9195 28.9986 74.6346L24.3493 72.1003C22.5193 73.2902 20.9077 74.7887 19.5705 76.5542L21.909 81.1575C21.4561 82.0158 21.0814 82.9329 20.8023 83.8993C20.5232 84.8656 20.3512 85.8412 20.2767 86.8089L15.8439 89.4565C16.0358 91.6564 16.5983 93.79 17.512 95.7724L22.7966 96.1073C23.8103 97.5915 25.0998 98.8809 26.6121 99.9315L26.7457 105.097C27.6977 105.552 28.6806 105.951 29.728 106.254C30.7755 106.556 31.82 106.743 32.8682 106.865L35.7351 102.566C37.5727 102.491 39.3531 102.081 41.002 101.366L45.6514 103.9C47.4813 102.71 49.0929 101.212 50.4301 99.4461L48.0917 94.8427C48.5446 93.9844 48.9193 93.0673 49.1984 92.101C49.4775 91.1346 49.6495 90.159 49.724 89.1913L54.1567 86.5437C53.9648 84.3439 53.4023 82.2102 52.4886 80.2279Z" fill="white"/>
<path d="M32.7802 95.6858C28.5395 94.461 26.089 90.0222 27.3152 85.7768C28.5414 81.5313 32.9727 79.0874 37.22 80.3141C41.4673 81.5409 43.9131 85.9712 42.6869 90.2166C41.4607 94.462 37.0274 96.9126 32.7802 95.6858Z" fill="#4E50CE"/>
<path d="M74 78C57.4474 78 44 64.5584 44 47.9872C44 31.416 57.4217 18 74 18C90.5783 18 104 31.416 104 47.9872C104 64.5584 90.5783 78 74 78Z" fill="white"/>
<path d="M74.0001 65.3078C64.4505 65.3078 56.6924 57.553 56.6924 47.9927C56.6924 38.4324 64.4357 30.6924 74.0001 30.6924C83.5645 30.6924 91.3078 38.4324 91.3078 47.9927C91.3078 57.553 83.5645 65.3078 74.0001 65.3078Z" fill="#4E50CE"/>
</svg>
