<svg width="120" height="120" viewBox="0 0 120 120" fill="none" xmlns="http://www.w3.org/2000/svg">
<path d="M120 0H0V120H120V0Z" fill="#F4794F"/>
<path d="M46.238 79.0921H38.7417V95.5H25V43.4175H47.2109C51.603 43.4175 55.4207 44.1495 58.6638 45.6043C61.8977 47.0591 64.3996 49.1439 66.1601 51.8497C67.9207 54.5554 68.801 57.7429 68.801 61.3938C68.801 64.9149 67.9763 67.9727 66.3362 70.5858C64.6961 73.1988 62.3425 75.2466 59.2939 76.7292L71.2236 95.5H56.4998L46.238 79.0921ZM52.7613 56.1213C51.3251 54.8704 49.1938 54.2496 46.3769 54.2496H38.7417V68.4823H46.3769C49.2031 68.4823 51.3251 67.8708 52.7613 66.6384C54.1976 65.4153 54.911 63.664 54.911 61.3938C54.911 59.1236 54.1976 57.3723 52.7613 56.1213Z" fill="#FFD84E"/>
<path d="M95.9707 31.1586L103.05 34.9763L99.0285 41.6386L91.7454 37.265L91.9492 45.2431H84.036L84.2398 37.265L76.9566 41.6386L73 34.9763L80.0793 31.1586L73 27.2761L76.9566 20.6138L84.2398 25.0523L84.036 17H91.9492L91.7454 25.0523L99.0285 20.6138L103.05 27.2761L95.9707 31.1586Z" fill="#FFD84E"/>
</svg>
