<svg width="120" height="120" viewBox="0 0 120 120" fill="none" xmlns="http://www.w3.org/2000/svg">
<path d="M120 0H0V120H120V0Z" fill="#4B69FF"/>
<path d="M94.5798 55.6198C95.2598 53.6498 95.6498 51.5398 95.6498 49.3298C95.6498 38.6698 87.0098 30.0298 76.3498 30.0298C67.2198 30.0298 59.5898 36.3698 57.5798 44.8898C55.5698 36.3798 47.9398 30.0298 38.8098 30.0298C28.1498 30.0298 19.5098 38.6698 19.5098 49.3298C19.5098 72.7998 53.9398 93.8098 57.3098 95.8098V95.9698C57.3098 95.9698 57.3598 95.9398 57.4398 95.8898C57.5298 95.9398 57.5698 95.9698 57.5698 95.9698V95.8098C60.6398 93.9898 89.4098 76.4498 94.5798 55.6198Z" fill="white"/>
</svg>
