<svg width="240" height="240" viewBox="0 0 240 240" fill="none" xmlns="http://www.w3.org/2000/svg">
<path d="M240 0H0V240H240V0Z" fill="#4E50CE"/>
<path d="M61.5293 84.0912C67.1985 88.7444 75.5905 88.2364 80.6704 82.7907L80.7517 82.7095C86.0145 77.0403 85.7097 68.1809 80.0405 62.9181C79.817 62.7149 79.5935 62.5117 79.3496 62.3289C73.6805 57.696 65.3088 58.1837 60.2695 63.6293L60.1476 63.7512C54.8848 69.4204 55.2099 78.2595 60.8791 83.5222C61.0823 83.7051 61.3058 83.9083 61.5293 84.0912Z" fill="white"/>
<path d="M66.0004 120.321V120.199C65.9801 115.851 63.9888 111.97 60.8596 109.43C58.4212 107.439 55.3123 106.24 51.9393 106.26C44.2178 106.28 38 112.559 38 120.26V120.342V120.423V120.524C38.0406 124.832 40.032 128.673 43.1205 131.213C45.5589 133.204 48.6678 134.403 52.0612 134.382C59.803 134.342 66.0411 128.043 66.0004 120.321Z" fill="white"/>
<path d="M80.9156 157.669C80.4889 157.222 80.0622 156.815 79.6152 156.45C74.2508 152.04 66.3058 152.223 61.1243 157.12C55.5161 162.403 55.252 171.222 60.5147 176.85L60.7179 177.054C61.1243 177.48 61.551 177.866 61.9778 178.232C67.3421 182.642 75.2668 182.459 80.4483 177.541C86.0565 172.218 86.3003 163.358 80.9766 157.75L80.9156 157.669Z" fill="white"/>
<path d="M197.753 115.242C195.782 113.616 193.343 112.519 190.6 112.194C182.919 111.239 175.929 116.705 174.974 124.365L174.954 124.467C174.345 129.425 176.397 134.098 179.993 137.045C181.964 138.67 184.403 139.768 187.126 140.093C194.786 141.048 201.776 135.622 202.731 127.982V127.962L202.751 127.799C203.381 122.841 201.329 118.188 197.753 115.242Z" fill="white"/>
<path d="M161.503 83.5224C161.909 83.9491 162.336 84.3352 162.763 84.7009C168.127 89.1103 176.052 88.9274 181.233 84.0101C186.841 78.6863 187.085 69.827 181.762 64.2188L181.68 64.1375C181.254 63.6905 180.827 63.2841 180.38 62.9183C175.015 58.5089 167.07 58.6918 161.889 63.5889C156.281 68.872 156.017 77.6907 161.279 83.3192L161.503 83.5224Z" fill="white"/>
<path d="M173.674 162.18C168.574 158.014 161.096 157.892 155.833 162.261L155.752 162.342C149.798 167.28 148.985 176.119 153.923 182.052C154.512 182.764 155.142 183.393 155.833 183.962C160.913 188.128 168.391 188.25 173.633 183.881L173.674 183.861L173.816 183.739C179.729 178.781 180.522 170.003 175.584 164.069C174.974 163.358 174.344 162.728 173.674 162.18Z" fill="white"/>
<path d="M125.558 177.948C123.343 176.139 120.579 174.981 117.511 174.798H117.389C109.668 174.331 103.044 180.224 102.576 187.945C102.292 192.598 104.324 196.865 107.676 199.608C109.871 201.397 112.614 202.555 115.642 202.738L115.926 202.758C123.627 203.185 130.211 197.312 130.658 189.611C130.942 184.958 128.91 180.691 125.558 177.948Z" fill="white"/>
<path d="M128.26 40.1604C125.619 37.9862 122.164 36.7874 118.486 37.0312L118.222 37.0515C110.541 37.6001 104.75 44.265 105.279 51.9661C105.563 55.9691 107.493 59.4641 110.379 61.8415C113.041 64.0157 116.515 65.2348 120.213 64.991H120.335C128.057 64.4627 133.868 57.7775 133.36 50.0764C133.076 46.0125 131.145 42.5175 128.26 40.1604Z" fill="white"/>
</svg>
