<svg width="121" height="120" viewBox="0 0 121 120" fill="none" xmlns="http://www.w3.org/2000/svg">
<path d="M120.722 0H0.72168V120H120.722V0Z" fill="#F4794F"/>
<path d="M61.9112 102.75C83.4282 102.75 100.871 85.3071 100.871 63.7901C100.871 42.2731 83.4282 24.8301 61.9112 24.8301C40.3942 24.8301 22.9512 42.2731 22.9512 63.7901C22.9512 85.3071 40.3942 102.75 61.9112 102.75Z" fill="white"/>
<path d="M54.6318 14.7002H69.2018L67.0318 41.5302H56.8018L54.6318 14.7002Z" fill="white"/>
<path d="M61.9116 90.0201C76.3981 90.0201 88.1416 78.2765 88.1416 63.7901C88.1416 49.3036 76.3981 37.5601 61.9116 37.5601C47.4252 37.5601 35.6816 49.3036 35.6816 63.7901C35.6816 78.2765 47.4252 90.0201 61.9116 90.0201Z" fill="#F4794F"/>
<path d="M59.9121 41.5298V49.5398H63.9121V41.5298" fill="white"/>
<path d="M59.9121 76.8496V84.8596H63.9121V76.8496" fill="white"/>
<path d="M83.5723 61.1997H75.5723V65.1997H83.5723" fill="white"/>
<path d="M48.262 61.1997H40.252V65.1997H48.262" fill="white"/>
</svg>
