<svg width="240" height="240" viewBox="0 0 240 240" fill="none" xmlns="http://www.w3.org/2000/svg">
<path d="M240 0H0V240H240V0Z" fill="#4B69FF"/>
<path d="M240 47.7698V34.5298H182.6C180.86 34.5298 179.15 35.2398 177.92 36.4698C176.69 37.6998 175.98 39.4098 175.98 41.1498V70.1898C165.28 73.1198 156.02 79.6498 149.39 88.3898C142.4 97.5798 138.25 109.26 138.25 121.89C138.25 134.65 142.49 146.44 149.62 155.67C156.24 164.25 165.41 170.67 175.98 173.58V203.41C175.98 205.15 176.69 206.86 177.92 208.09C179.15 209.32 180.86 210.03 182.6 210.03H240V196.79H189.22V47.7798H240V47.7698ZM160.83 147C155.6 140.22 152.41 131.49 152.41 121.88C152.41 112.37 155.53 103.71 160.66 96.9598C164.72 91.6298 170 87.5298 175.98 85.1098V158.63C170.08 156.24 164.86 152.22 160.83 147Z" fill="white"/>
<path d="M46.82 52.85C33.47 43.82 17.32 38.54 0 38.54V53.3C9.54 53.3 18.6 55.23 26.84 58.72C39.21 63.95 49.75 72.71 57.19 83.72C64.63 94.74 68.96 107.97 68.96 122.27C68.96 131.81 67.03 140.87 63.54 149.11C58.31 161.47 49.56 172.01 38.55 179.45C27.54 186.88 14.31 191.21 0 191.21V205.97C11.54 205.97 22.57 203.63 32.59 199.39C47.62 193.03 60.39 182.43 69.42 169.08C78.45 155.73 83.72 139.58 83.72 122.27C83.72 110.73 81.38 99.7 77.14 89.68C70.78 74.65 60.18 61.88 46.82 52.85Z" fill="white"/>
</svg>
