<svg width="33" height="31" viewBox="0 0 33 31" fill="none" xmlns="http://www.w3.org/2000/svg">
<path d="M16.5283 29.6082L6.17578 24.9183V12.6899L16.5283 17.3756V29.6082Z" stroke="white" stroke-miterlimit="10" stroke-linecap="round" stroke-linejoin="round"/>
<path d="M16.5283 29.6082L26.8809 24.9183V12.6899L16.5283 17.3756V29.6082Z" stroke="white" stroke-miterlimit="10" stroke-linecap="round" stroke-linejoin="round"/>
<path d="M26.8808 12.6898L16.5283 8L6.17578 12.6898L16.5283 17.3755L26.8808 12.6898Z" stroke="white" stroke-miterlimit="10" stroke-linecap="round" stroke-linejoin="round"/>
<path d="M11.3525 22.1816L1 17.4917L6.17626 12.6899L16.5288 17.3756L11.3525 22.1816Z" stroke="white" stroke-miterlimit="10" stroke-linecap="round" stroke-linejoin="round"/>
<path d="M21.7046 22.1816L32.0571 17.4917L26.8808 12.6899L16.5283 17.3756L21.7046 22.1816Z" stroke="white" stroke-miterlimit="10" stroke-linecap="round" stroke-linejoin="round"/>
<line x1="6.7" y1="4.1" x2="9.1" y2="7.3" stroke="white" stroke-linecap="round"/>
<line x1="25.7937" y1="3.68833" x2="23.6879" y2="7.08914" stroke="white" stroke-linecap="round"/>
<line x1="16.5" y1="0.5" x2="16.5" y2="4.5" stroke="white" stroke-linecap="round"/>
</svg>
