<svg width="31" height="31" viewBox="0 0 31 31" fill="none" xmlns="http://www.w3.org/2000/svg">
<g clip-path="url(#clip0)">
<path d="M12.13 18.77H0.459961V30.44H12.13V18.77Z" stroke="white" stroke-width="0.9192" stroke-miterlimit="10" stroke-linecap="round" stroke-linejoin="round"/>
<path d="M29.6971 19.4471L18.7051 15.5283L14.7863 26.5203L25.7783 30.4391L29.6971 19.4471Z" stroke="white" stroke-width="0.9192" stroke-miterlimit="10" stroke-linecap="round" stroke-linejoin="round"/>
<path d="M13.6131 0.464316L3.50684 6.29932L9.34184 16.4055L19.4481 10.5705L13.6131 0.464316Z" stroke="white" stroke-width="0.9192" stroke-miterlimit="10" stroke-linecap="round" stroke-linejoin="round"/>
<path d="M24.637 21.9669C24.5752 22.1462 24.4881 22.2702 24.3789 22.3618C24.4279 22.279 24.4691 22.1892 24.5022 22.0934C24.6232 21.7439 24.6333 21.3721 24.4277 21.0237C24.4778 21.0755 24.5202 21.1277 24.5554 21.1798L24.5554 21.1799L24.5606 21.1874C24.721 21.4156 24.7563 21.6507 24.642 21.9532L24.6394 21.96L24.637 21.9669ZM21.5012 19.7687L21.5778 19.7962L21.4601 20.1183L20.8901 21.6783L20.7173 22.1511L20.7191 22.1518L20.619 22.4313L20.039 24.0513L19.9305 24.3544L19.8595 24.3289L21.5012 19.7687ZM23.9314 24.5159C23.9895 24.3529 24.021 24.1859 24.0195 24.0202C24.0741 24.1842 24.0761 24.3843 23.9883 24.6333C23.868 24.9726 23.6626 25.1618 23.3712 25.2525C23.3515 25.2586 23.3312 25.2642 23.3103 25.2694C23.6155 25.1143 23.8181 24.842 23.9314 24.5159Z" fill="white" stroke="white"/>
<path d="M8.1292 25.9227L8.06363 25.7701H8.06885L7.96505 25.5285L8.61561 26.9701H8.57918L8.1292 25.9227ZM3.8228 26.9701L4.22026 26.086L3.84043 26.9701H3.8228Z" fill="white" stroke="white"/>
<path d="M11.0119 11.319L8.64056 7.0822L8.70027 7.04881L8.89371 7.39422L9.59371 8.64422L9.7556 8.93332L9.74923 8.93687L9.99352 9.37389L10.8935 10.9839L11.0644 11.2896L11.0119 11.319ZM13.9199 9.26414C13.9098 9.28793 13.8987 9.31178 13.8868 9.33569C13.9804 8.98719 13.9174 8.64167 13.737 8.3171L13.7366 8.31639C13.5377 7.95971 13.2293 7.70706 12.819 7.64012C12.9084 7.63498 12.99 7.63962 13.0643 7.65253C13.3507 7.70235 13.6034 7.87138 13.8129 8.24282C14.0338 8.64622 14.0478 8.96361 13.9199 9.26414Z" fill="white" stroke="white"/>
</g>
<defs>
<clipPath id="clip0">
<rect width="30.16" height="30.89" fill="white"/>
</clipPath>
</defs>
</svg>
