<svg width="37" height="26" viewBox="0 0 37 26" fill="none" xmlns="http://www.w3.org/2000/svg">
<path d="M31.667 4.72607H36.3692V7.71633" stroke="white" stroke-miterlimit="10"/>
<path d="M15.4803 23.3898H0.629883V4.72607H5.3321" stroke="white" stroke-miterlimit="10"/>
<path d="M36.3691 9.9082V21.9452" stroke="white" stroke-miterlimit="10"/>
<path d="M18.4932 9.9082V21.9452" stroke="white" stroke-miterlimit="10"/>
<path d="M15.4802 19.2844H5.33203V0.633301H13.6397C16.3249 0.633301 18.4932 2.81264 18.4932 5.51147V7.12063" stroke="white" stroke-miterlimit="10"/>
<path d="M9.13965 5.65088H14.9386" stroke="white" stroke-miterlimit="10"/>
<path d="M9.13965 9.95898H14.9386" stroke="white" stroke-miterlimit="10"/>
<path d="M9.13965 14.2798H14.9386" stroke="white" stroke-miterlimit="10"/>
<path d="M31.667 15.6099V0.633301H23.3594C20.6742 0.633301 18.5059 2.81264 18.5059 5.51147V7.12063" stroke="white" stroke-miterlimit="10"/>
<path d="M27.8469 5.65088H22.0605" stroke="white" stroke-miterlimit="10"/>
<path d="M27.8469 9.95898H22.0605" stroke="white" stroke-miterlimit="10"/>
<path d="M27.8469 14.2798H22.0605" stroke="white" stroke-miterlimit="10"/>
<path d="M29.5615 21.9455C29.5615 23.8334 31.0869 25.3665 32.9653 25.3665C34.8436 25.3665 36.369 23.8334 36.369 21.9455C36.369 20.0576 34.8436 18.5244 32.9653 18.5244C31.0869 18.5244 29.5615 20.0576 29.5615 21.9455Z" stroke="white" stroke-miterlimit="10"/>
<path d="M18.4932 21.9455C18.4932 23.8334 20.0185 25.3665 21.8969 25.3665C23.7753 25.3665 25.3007 23.8334 25.3007 21.9455C25.3007 20.0576 23.7753 18.5244 21.8969 18.5244C20.0185 18.5244 18.4932 20.0576 18.4932 21.9455Z" stroke="white" stroke-miterlimit="10"/>
<path d="M29.5618 21.945C29.5618 20.7667 28.6037 19.8037 27.4313 19.8037C26.2589 19.8037 25.3008 20.7667 25.3008 21.945" stroke="white" stroke-miterlimit="10"/>
</svg>
