<svg width="37" height="26" viewBox="0 0 37 26" fill="none" xmlns="http://www.w3.org/2000/svg">
<g clip-path="url(#clip0)">
<path d="M35.7201 12.84C35.7201 19.23 30.5401 24.41 24.1501 24.41C17.7601 24.41 12.5801 19.23 12.5801 12.84C12.5801 6.45002 17.7601 1.27002 24.1501 1.27002C30.5401 1.27002 35.7201 6.45002 35.7201 12.84Z" fill="#4E50CE" stroke="white" stroke-miterlimit="10" stroke-linecap="round" stroke-linejoin="round"/>
<path d="M32.1196 12.8401C32.1196 19.3501 26.8396 24.6201 20.3396 24.6201C13.8296 24.6201 8.55957 19.3501 8.55957 12.8401C8.55957 6.34006 13.8396 1.06006 20.3396 1.06006C26.8396 1.06006 32.1196 6.33006 32.1196 12.8401Z" fill="#4E50CE" stroke="white" stroke-miterlimit="10" stroke-linecap="round" stroke-linejoin="round"/>
<path d="M28.64 12.84C28.64 19.51 23.24 24.91 16.57 24.91C9.9 24.91 4.5 19.51 4.5 12.84C4.5 6.18002 9.91 0.77002 16.57 0.77002C23.24 0.77002 28.64 6.17002 28.64 12.84Z" fill="#4E50CE" stroke="white" stroke-miterlimit="10" stroke-linecap="round" stroke-linejoin="round"/>
<path d="M25.18 12.84C25.18 19.66 19.66 25.18 12.84 25.18C6.03 25.18 0.5 19.66 0.5 12.84C0.5 6.03 6.03 0.5 12.84 0.5C19.65 0.5 25.18 6.03 25.18 12.84Z" fill="#4E50CE" stroke="white" stroke-miterlimit="10" stroke-linecap="round" stroke-linejoin="round"/>
<path d="M22.2602 12.8399C22.2602 18.0499 18.0402 22.2699 12.8302 22.2699C7.62016 22.2699 3.41016 18.0499 3.41016 12.8399C3.41016 7.63992 7.63016 3.41992 12.8302 3.41992" stroke="white" stroke-miterlimit="10" stroke-linecap="round" stroke-linejoin="round"/>
<path d="M11.4199 8.0498H13.2999C14.9299 8.0498 16.2499 9.3698 16.2499 10.9998C16.2499 12.6298 14.9299 13.9498 13.2999 13.9498H11.4199" stroke="white" stroke-miterlimit="10" stroke-linecap="round" stroke-linejoin="round"/>
<path d="M11.4199 8.0498V17.6298" stroke="white" stroke-miterlimit="10" stroke-linecap="round" stroke-linejoin="round"/>
<path d="M9.42969 15.8599H15.1297" stroke="white" stroke-miterlimit="10" stroke-linecap="round" stroke-linejoin="round"/>
</g>
<defs>
<clipPath id="clip0">
<rect width="36.22" height="25.68" fill="white"/>
</clipPath>
</defs>
</svg>
