<svg width="39" height="24" viewBox="0 0 39 24" fill="none" xmlns="http://www.w3.org/2000/svg">
<g clip-path="url(#clip0)">
<path d="M30.4897 11.3998C30.4897 17.1398 25.8397 21.7798 20.0997 21.7798C14.3597 21.7798 9.71973 17.1298 9.71973 11.3998C9.71973 5.66976 14.3697 1.00977 20.1097 1.00977C25.8497 1.00977 30.4897 5.65977 30.4897 11.3998Z" stroke="white" stroke-miterlimit="10" stroke-linecap="round" stroke-linejoin="round"/>
<path d="M26.5499 11.4C26.5499 14.96 23.6699 17.84 20.1099 17.84C16.5499 17.84 13.6699 14.96 13.6699 11.4C13.6699 7.83996 16.5499 4.95996 20.1099 4.95996" stroke="white" stroke-miterlimit="10" stroke-linecap="round" stroke-linejoin="round"/>
<path d="M33.8604 0.720215V23.4802H36.1804V13.1202C36.1804 13.1202 37.6804 9.96022 37.6804 7.07022C37.6804 1.83022 33.8604 0.720215 33.8604 0.720215Z" stroke="white" stroke-miterlimit="10" stroke-linecap="round" stroke-linejoin="round"/>
<path d="M2.67 11.41V23.48H5.06V11.39C5.06 11.39 6.89 10.62 6.89 8.53C6.89 6.44 6.89 0.5 6.89 0.5H0.5C0.5 0.5 0.5 6.2 0.5 8.65C0.5 10.82 2.67 11.41 2.67 11.41Z" stroke="white" stroke-miterlimit="10" stroke-linecap="round" stroke-linejoin="round"/>
<path d="M2.66992 0.5V6.68" stroke="white" stroke-miterlimit="10" stroke-linecap="round" stroke-linejoin="round"/>
<path d="M4.87988 0.5V6.68" stroke="white" stroke-miterlimit="10" stroke-linecap="round" stroke-linejoin="round"/>
</g>
<defs>
<clipPath id="clip0">
<rect width="38.18" height="23.98" fill="white"/>
</clipPath>
</defs>
</svg>
