<svg width="31" height="25" viewBox="0 0 31 25" fill="none" xmlns="http://www.w3.org/2000/svg">
<g clip-path="url(#clip0)">
<path d="M23.92 3.37C21.93 2.2 18.43 0.5 18.43 0.5C18.43 0.5 16.87 3.21 15.08 4.67C13.32 3.2 11.79 0.55 11.79 0.55C11.79 0.55 8.29 2.25 6.3 3.42C5.37 3.96 0.5 10.14 0.5 10.14L5.22 13.83L6.66 11.73V24.12H15.34V24.07H23.55V11.68L24.99 13.78L29.71 10.09C29.71 10.09 24.83 3.91 23.92 3.37Z" stroke="white" stroke-miterlimit="10" stroke-linecap="round" stroke-linejoin="round"/>
<path d="M18.4301 0.5C18.4301 0.5 18.4101 5.02 17.7501 5.68C17.0901 6.34 15.0801 4.67 15.0801 4.67" stroke="white" stroke-miterlimit="10" stroke-linecap="round" stroke-linejoin="round"/>
<path d="M11.7802 0.549805C11.7802 0.549805 11.7302 4.9898 12.3902 5.6498C13.0502 6.3098 15.0702 4.6698 15.0702 4.6698" stroke="white" stroke-miterlimit="10" stroke-linecap="round" stroke-linejoin="round"/>
<path d="M15.0703 4.66992V9.75992" stroke="white" stroke-miterlimit="10" stroke-linecap="round" stroke-linejoin="round"/>
<path d="M28.1398 8.12988L23.5498 11.6799" stroke="white" stroke-miterlimit="10" stroke-linecap="round" stroke-linejoin="round"/>
<path d="M6.59984 11.7202L2.08984 8.16016" stroke="white" stroke-miterlimit="10" stroke-linecap="round" stroke-linejoin="round"/>
</g>
<defs>
<clipPath id="clip0">
<rect width="30.21" height="24.62" fill="white"/>
</clipPath>
</defs>
</svg>
