<svg width="29" height="26" viewBox="0 0 29 26" fill="none" xmlns="http://www.w3.org/2000/svg">
<path d="M19.0756 13.2081C19.0756 16.9567 16.0377 19.9708 12.3161 19.9708C8.5693 19.9708 5.55664 16.9314 5.55664 13.2081C5.55664 9.45954 8.59461 6.44547 12.3161 6.44547C16.0377 6.42014 19.0756 9.45954 19.0756 13.2081Z" stroke="white" stroke-miterlimit="10" stroke-linecap="round" stroke-linejoin="round"/>
<path d="M14.8737 13.2081C14.8737 16.9567 13.7344 19.9708 12.3167 19.9708C10.899 19.9708 9.75977 16.9314 9.75977 13.2081C9.75977 9.45954 10.899 6.44547 12.3167 6.44547C13.7344 6.42014 14.8737 9.45954 14.8737 13.2081Z" stroke="white" stroke-miterlimit="10" stroke-linecap="round" stroke-linejoin="round"/>
<path d="M5.53223 13.208H19.0765" stroke="white" stroke-miterlimit="10" stroke-linecap="round" stroke-linejoin="round"/>
<path d="M23.9367 19.2871V5.7364C23.9367 3.12758 21.8101 1 19.2025 1H5.73418C3.12658 1 1 3.12758 1 5.7364V20.7308C1 23.3396 3.12658 25.4672 5.73418 25.4672H19.2025H28.4684L23.9367 19.2871Z" stroke="white" stroke-miterlimit="10" stroke-linecap="round" stroke-linejoin="round"/>
</svg>
