<svg width="120" height="120" viewBox="0 0 120 120" fill="none" xmlns="http://www.w3.org/2000/svg">
<path d="M120 0H0V120H120V0Z" fill="#4B69FF"/>
<path d="M29.7591 39.1591L32.0663 40.8708L33.292 38.7087L35.509 39.9699L34.1211 42.4023L36.5004 44.186L35.1666 46.5283L32.7873 44.7445L31.5796 46.8706L33.9589 48.6543L32.6251 50.9966L30.2458 49.2129L29.0021 51.375L26.785 50.1137L28.1729 47.6634L25.8657 45.9517L24.622 48.1138L22.405 46.8526L23.7929 44.4022L21.4316 42.6365L22.7655 40.2942L25.1448 42.0779L26.3524 39.9519L23.9731 38.1682L25.307 35.8259L27.6863 37.6096L28.93 35.4475L31.147 36.7087L29.7591 39.1591ZM28.4253 41.5014L27.2176 43.6094L29.5248 45.3211L30.7324 43.195L28.4253 41.5014Z" fill="white"/>
<path d="M41.8533 26.8374C42.9709 27.0356 43.9802 27.7743 44.8995 29.0896L48.3963 34.1345L45.2961 36.2786L42.1417 31.7382C41.3126 30.531 40.4113 30.2607 39.438 30.9274C38.8972 31.2877 38.6088 31.7562 38.5187 32.3327C38.4466 32.9093 38.6449 33.5399 39.1135 34.2246L42.0696 38.4947L38.9874 40.6568L32.877 31.8283L35.833 29.7923L36.4999 30.7472C36.6081 30.1526 36.8244 29.5941 37.1669 29.0716C37.5093 28.5491 37.96 28.0986 38.5367 27.7023C39.6182 26.9275 40.7358 26.6392 41.8533 26.8374Z" fill="white"/>
<path d="M51.1181 33.3936C50.2168 33.3756 49.4778 33.2675 48.901 33.0513L49.4598 30.2946C50.0005 30.4928 50.6134 30.6009 51.3163 30.6369C52.0193 30.673 52.6862 30.6189 53.3351 30.4748C53.9299 30.3486 54.3445 30.1865 54.5608 30.0243C54.7771 29.8442 54.8672 29.646 54.8312 29.4117C54.7771 29.1775 54.5969 29.0514 54.2724 29.0153C53.948 28.9793 53.4433 28.9973 52.7764 29.0514C51.9112 29.1235 51.1721 29.1415 50.5413 29.1054C49.9104 29.0694 49.3516 28.8712 48.8109 28.5109C48.2882 28.1505 47.9457 27.5559 47.7655 26.7451C47.6213 26.0785 47.6934 25.4299 47.9818 24.8173C48.2702 24.2047 48.7568 23.6642 49.4598 23.1957C50.1628 22.7272 51.046 22.3669 52.1275 22.1507C52.8845 21.9885 53.6596 21.8984 54.4527 21.8984C55.2458 21.8984 55.9127 21.9705 56.4714 22.1507L55.9127 24.8893C54.8672 24.565 53.8038 24.529 52.7223 24.7632C52.1455 24.8893 51.7309 25.0515 51.4966 25.2497C51.2623 25.4479 51.1541 25.6461 51.2082 25.8803C51.2623 26.1325 51.4425 26.2587 51.767 26.2947C52.0914 26.3307 52.5961 26.3307 53.2991 26.2767C54.2003 26.2226 54.9393 26.2046 55.5522 26.2587C56.165 26.3127 56.7238 26.5109 57.2285 26.8532C57.7512 27.2136 58.0937 27.7902 58.2559 28.5829C58.4001 29.2496 58.328 29.8802 58.0396 30.4928C57.7512 31.1054 57.2465 31.6459 56.5255 32.1144C55.8045 32.5828 54.9033 32.9251 53.8038 33.1594C52.9025 33.3395 52.0013 33.4116 51.1181 33.3936Z" fill="white"/>
<path d="M71.4855 23.9357C72.1524 24.8546 72.3327 26.1158 72.0443 27.6833L70.9628 33.7372L67.2497 33.0705L68.223 27.6292C68.4934 26.1878 68.0428 25.359 66.8711 25.1428C66.2403 25.0347 65.6815 25.1428 65.2309 25.4852C64.7803 25.8275 64.4738 26.4221 64.3116 27.2509L63.4104 32.3678L59.6973 31.7012L62.3109 17.2332L66.024 17.8998L65.1408 22.7825C65.6094 22.4762 66.1321 22.2781 66.7269 22.188C67.3037 22.0979 67.9166 22.0979 68.5294 22.206C69.8452 22.4402 70.8366 23.0168 71.4855 23.9357Z" fill="white"/>
<path d="M78.3691 34.0067L76.819 34.295L75.3049 36.4571L72.2227 34.295L80.6763 22.2593L83.7585 24.4214L79.3244 30.7275L84.6237 29.8627L88.2828 32.4211L81.9741 33.6283L82.4067 41.4299L78.6755 38.8173L78.3691 34.0067Z" fill="white"/>
<path d="M83.7088 43.1786C83.6367 42.1336 83.8169 41.1787 84.2675 40.2958C84.7181 39.413 85.4031 38.6923 86.3043 38.1337C87.2056 37.5752 88.1609 37.3049 89.1523 37.3049C90.1436 37.3049 91.0809 37.5752 91.9641 38.1157C92.8473 38.6562 93.5864 39.413 94.1992 40.4039C94.812 41.3949 95.1545 42.4039 95.2266 43.4489C95.3167 44.4759 95.1185 45.4308 94.6859 46.3137C94.2533 47.1965 93.5503 47.9172 92.6491 48.4758C91.7298 49.0343 90.7925 49.3046 89.8011 49.3226C88.8098 49.3226 87.8725 49.0523 86.9893 48.5118C86.1061 47.9713 85.349 47.2145 84.7362 46.2056C84.1233 45.2326 83.7989 44.2236 83.7088 43.1786ZM88.7197 45.6831C89.3325 45.8092 89.9814 45.665 90.6663 45.2326C91.3513 44.8182 91.7659 44.3137 91.9281 43.7192C92.0903 43.1246 92.0002 42.548 91.6577 41.9895C91.3152 41.4309 90.8286 41.0886 90.2337 40.9625C89.6389 40.8364 88.99 40.9805 88.3231 41.3949C87.6382 41.8093 87.2056 42.3318 87.0434 42.9264C86.8811 43.521 86.9712 44.0975 87.3137 44.6741C87.6382 45.2146 88.1068 45.5569 88.7197 45.6831Z" fill="white"/>
<path d="M102.165 49.0344L103.048 52.692L88.7543 56.1694L87.8711 52.5118L102.165 49.0344Z" fill="white"/>
<path d="M98.559 67.105C97.6938 67.9879 96.414 68.3843 94.7377 68.2942L88.7715 67.9338L88.9698 64.4384L90.3577 64.5105C89.3483 63.9159 88.8796 62.8169 88.9878 61.2493C89.0419 60.4205 89.2221 59.6998 89.5466 59.1233C89.871 58.5287 90.2856 58.0963 90.8083 57.826C91.313 57.5377 91.8898 57.4296 92.5206 57.4657C93.53 57.5197 94.3051 57.9702 94.8098 58.7629C95.3325 59.5737 95.5308 60.7989 95.4407 62.4205L95.3145 64.5646C96.4501 64.5646 97.0629 63.8439 97.153 62.3844C97.1891 61.8619 97.135 61.3394 96.9908 60.7989C96.8466 60.2584 96.6483 59.8079 96.396 59.4116L99.0276 58.2945C99.3881 58.9071 99.6585 59.6458 99.8207 60.5106C99.9829 61.3755 100.055 62.2403 100.001 63.0871C99.9108 64.8709 99.4242 66.2042 98.559 67.105ZM91.5653 63.6096C91.7636 63.952 92.052 64.2042 92.4485 64.3844L93.3858 64.4384L93.476 62.8169C93.5481 61.7178 93.2056 61.1593 92.4846 61.1052C92.1602 61.0872 91.8898 61.1953 91.6735 61.4295C91.4572 61.6637 91.349 62.0061 91.313 62.4385C91.2769 62.8709 91.3671 63.2673 91.5653 63.6096Z" fill="white"/>
<path d="M90.7719 82.9602L88.4467 81.2846L87.2391 83.4467L85.004 82.2035L86.3739 79.7712L83.9766 78.0054L85.2924 75.6451L87.6897 77.4109L88.8793 75.2848L86.482 73.5191L87.7978 71.1588L90.1951 72.9245L91.4208 70.7444L93.6559 71.9876L92.286 74.438L94.6112 76.1136L95.8369 73.9335L98.072 75.1767L96.7021 77.6271L99.0994 79.3928L97.7836 81.7531L95.3863 79.9874L94.1966 82.1134L96.5579 83.8972L95.2421 86.2575L92.8448 84.4917L91.6191 86.6719L89.384 85.4286L90.7719 82.9602ZM92.0877 80.6L93.2774 78.4739L90.9522 76.7802L89.7625 78.9063L92.0877 80.6Z" fill="white"/>
<path d="M78.318 95.6635C77.2004 95.4653 76.191 94.7085 75.2718 93.3933L71.793 88.3303L74.8932 86.2043L78.0296 90.7627C78.8587 91.9699 79.7599 92.2401 80.7333 91.5735C81.274 91.2131 81.5804 90.7447 81.6525 90.1681C81.7427 89.5916 81.5444 88.961 81.0577 88.2763L78.1197 83.9881L81.22 81.8621L87.2943 90.7267L84.3382 92.7626L83.6713 91.7897C83.5632 92.3843 83.3469 92.9428 82.9864 93.4653C82.6439 93.9878 82.1753 94.4383 81.6165 94.8347C80.553 95.5734 79.4355 95.8617 78.318 95.6635Z" fill="white"/>
<path d="M69.142 89.0317C70.0433 89.0497 70.7823 89.1758 71.3591 89.374L70.7823 92.1307C70.2415 91.9325 69.6287 91.8244 68.9257 91.7884C68.2227 91.7523 67.5558 91.8064 66.9069 91.9505C66.3121 92.0766 65.8975 92.2208 65.6813 92.401C65.4469 92.5811 65.3748 92.7793 65.4109 93.0136C65.465 93.2478 65.6452 93.3739 65.9696 93.4099C66.2941 93.446 66.7988 93.428 67.4657 93.3739C68.3309 93.3018 69.0699 93.2838 69.7008 93.3199C70.3317 93.3559 70.8904 93.5721 71.4131 93.9324C71.9359 94.2928 72.2783 94.8874 72.4586 95.6982C72.6028 96.3648 72.5307 97.0134 72.2423 97.626C71.9539 98.2386 71.4492 98.7792 70.7462 99.2476C70.0433 99.7161 69.16 100.058 68.0786 100.293C67.3215 100.455 66.5464 100.545 65.7533 100.545C64.9783 100.545 64.2933 100.473 63.7346 100.293L64.3114 97.554C65.3568 97.8783 66.4203 97.9143 67.5018 97.6801C68.0785 97.554 68.4931 97.3918 68.7455 97.2116C68.9798 97.0134 69.0879 96.8152 69.0339 96.599C68.9798 96.3468 68.7995 96.2207 68.4751 96.1846C68.1507 96.1486 67.646 96.1486 66.943 96.2027C66.0417 96.2567 65.3027 96.2567 64.6899 96.2207C64.0951 96.1666 63.5183 95.9684 63.0136 95.6081C62.5089 95.2477 62.1484 94.6712 61.9862 93.8784C61.842 93.2117 61.9141 92.5811 62.2025 91.9685C62.4909 91.3559 62.9956 90.8154 63.7165 90.365C64.4375 89.9145 65.3388 89.5542 66.4383 89.32C67.3576 89.0857 68.2408 89.0137 69.142 89.0317Z" fill="white"/>
<path d="M48.7406 98.4376C48.0917 97.5187 47.8935 96.2574 48.1819 94.6899L49.2814 88.6541L52.9945 89.3387L52.0031 94.78C51.7328 96.2214 52.1834 97.0502 53.337 97.2664C53.9678 97.3925 54.5266 97.2664 54.9772 96.9241C55.4278 96.5817 55.7343 95.9872 55.8965 95.1584L56.8338 90.0594L60.5469 90.7441L57.8972 105.212L54.1841 104.527L55.0854 99.6447C54.6167 99.951 54.094 100.149 53.4992 100.239C52.9044 100.329 52.3095 100.329 51.6967 100.203C50.3809 99.933 49.3895 99.3564 48.7406 98.4376Z" fill="white"/>
<path d="M41.8336 88.3126L43.3837 88.0423L44.9158 85.8983L47.9981 88.0784L39.4903 100.078L36.4081 97.8979L40.8602 91.6098L35.5609 92.4386L31.9199 89.8621L38.2286 88.691L37.8321 80.8894L41.5452 83.52L41.8336 88.3126Z" fill="white"/>
<path d="M36.5704 79.1412C36.6425 80.1862 36.4622 81.1412 36.0116 82.024C35.561 82.9069 34.876 83.6276 33.9568 84.1861C33.0555 84.7266 32.1002 85.0149 31.1088 84.9969C30.1175 84.9969 29.1802 84.7086 28.297 84.1681C27.4138 83.6276 26.6747 82.8528 26.0799 81.8619C25.4851 80.8709 25.1426 79.8619 25.0525 78.8169C24.9804 77.7899 25.1607 76.835 25.6113 75.9521C26.0619 75.0693 26.7468 74.3666 27.6661 73.8081C28.5854 73.2495 29.5407 72.9792 30.5321 72.9792C31.5234 72.9792 32.4607 73.2495 33.3439 73.79C34.2271 74.3306 34.9842 75.1053 35.579 76.0963C36.1558 77.1052 36.4802 78.1142 36.5704 79.1412ZM31.5595 76.6368C30.9466 76.5107 30.2977 76.6548 29.6128 77.0692C28.9278 77.4836 28.5133 77.9881 28.351 78.5827C28.1888 79.1773 28.2789 79.7538 28.6214 80.3124C28.9639 80.8709 29.4325 81.2313 30.0454 81.3574C30.6582 81.4835 31.2891 81.3394 31.974 80.925C32.659 80.5106 33.0916 80.0061 33.2538 79.3935C33.416 78.7809 33.3439 78.2223 33.0015 77.6458C32.659 77.1052 32.1723 76.7629 31.5595 76.6368Z" fill="white"/>
<path d="M18.1132 73.1783L17.248 69.5208L31.5598 66.1155L32.4249 69.773L18.1132 73.1783Z" fill="white"/>
<path d="M21.8065 55.1248C22.6717 54.242 23.9514 53.8456 25.6277 53.9537L31.5759 54.332L31.3596 57.8274L29.9717 57.7373C30.9811 58.3499 31.4317 59.431 31.3236 60.9985C31.2695 61.8273 31.0892 62.53 30.7468 63.1246C30.4223 63.7192 29.9897 64.1516 29.485 64.4218C28.9623 64.6921 28.4035 64.8182 27.7727 64.7822C26.7633 64.7101 25.9882 64.2777 25.4835 63.4669C24.9788 62.6561 24.7625 61.4309 24.8707 59.8094L25.0149 57.6653C23.8793 57.6653 23.2665 58.386 23.1763 59.8274C23.1403 60.3499 23.1944 60.8724 23.3205 61.4129C23.4467 61.9534 23.645 62.4219 23.9154 62.8003L21.2837 63.8993C20.9232 63.2867 20.6709 62.53 20.5087 61.6652C20.3464 60.8003 20.2924 59.9355 20.3464 59.0887C20.4366 57.341 20.9413 56.0257 21.8065 55.1248ZM28.7821 58.6562C28.5838 58.3139 28.2954 58.0617 27.8988 57.8815L26.9796 57.8274L26.8714 59.449C26.7993 60.5481 27.1238 61.1066 27.8628 61.1607C28.1872 61.1787 28.4576 61.0706 28.6739 60.8364C28.8902 60.6021 29.0164 60.2598 29.0344 59.8274C29.0524 59.3769 28.9803 58.9986 28.7821 58.6562Z" fill="white"/>
</svg>
