<svg width="375" height="495" viewBox="0 0 375 495" fill="none" xmlns="http://www.w3.org/2000/svg">
<path d="M24.543 361.872H42.3568V385.935H69.2273V361.872H87.1535V423.561H69.2273V400.507H42.3568V423.561H24.543V361.872Z" fill="#4E50CE"/>
<path d="M148.007 367.776C153.134 372.334 155.716 379.172 155.716 388.364V423.561H138.95V415.864C135.582 421.581 129.295 424.458 120.126 424.458C115.373 424.458 111.256 423.673 107.776 422.067C104.295 420.46 101.638 418.255 99.8045 415.416C97.9708 412.576 97.0352 409.363 97.0352 405.776C97.0352 400.059 99.2058 395.538 103.51 392.25C107.851 388.962 114.512 387.318 123.569 387.318H137.827C137.827 383.432 136.63 380.405 134.272 378.313C131.914 376.22 128.322 375.174 123.606 375.174C120.313 375.174 117.094 375.697 113.913 376.706C110.732 377.752 108.038 379.135 105.83 380.891L99.3929 368.374C102.761 366.02 106.803 364.152 111.518 362.881C116.234 361.574 121.061 360.938 126.039 360.938C135.507 360.976 142.88 363.218 148.007 367.776ZM132.738 410.334C135.095 408.914 136.78 406.822 137.79 404.094V397.78H125.515C118.18 397.78 114.475 400.171 114.475 404.991C114.475 407.27 115.373 409.101 117.169 410.446C118.966 411.791 121.436 412.464 124.579 412.464C127.648 412.464 130.343 411.754 132.738 410.334Z" fill="#4E50CE"/>
<path d="M263.309 361.872V423.561H169V361.872H186.814V408.876H207.36V361.872H225.174V408.876H245.495V361.872H263.309Z" fill="#4E50CE"/>
<path d="M324.312 367.776C329.439 372.334 332.021 379.172 332.021 388.364V423.561H315.255V415.864C311.887 421.581 305.6 424.458 296.431 424.458C291.678 424.458 287.561 423.673 284.081 422.067C280.601 420.46 277.943 418.255 276.11 415.416C274.276 412.576 273.34 409.363 273.34 405.776C273.34 400.059 275.511 395.538 279.815 392.25C284.156 388.962 290.817 387.318 299.874 387.318H314.133C314.133 383.432 312.935 380.405 310.577 378.313C308.22 376.22 304.627 375.174 299.911 375.174C296.618 375.174 293.4 375.697 290.219 376.706C287.038 377.752 284.343 379.135 282.135 380.891L275.698 368.374C279.066 366.02 283.108 364.152 287.823 362.881C292.539 361.574 297.367 360.938 302.344 360.938C311.812 360.976 319.185 363.218 324.312 367.776ZM309.043 410.334C311.401 408.914 313.085 406.822 314.095 404.094V397.78H301.82C294.485 397.78 290.78 400.171 290.78 404.991C290.78 407.27 291.678 409.101 293.474 410.446C295.271 411.791 297.741 412.464 300.884 412.464C303.953 412.464 306.648 411.754 309.043 410.334Z" fill="#4E50CE"/>
<path d="M101.335 443.849V493.954H24.7656V443.849H39.2113V482.035H55.9025V443.849H70.3481V482.035H86.8522V443.849H101.335Z" fill="#4E50CE"/>
<path d="M135.586 474.973H128.027V493.954H113.469V443.849H128.027V463.316H135.848L149.471 443.849H164.964L147.412 467.874L166.162 493.954H148.984L135.586 474.973Z" fill="#4E50CE"/>
<path d="M179.172 491.375C174.98 489.17 171.687 486.107 169.329 482.221C166.971 478.297 165.774 473.888 165.774 468.919C165.774 463.949 166.971 459.503 169.329 455.617C171.687 451.694 174.98 448.667 179.172 446.463C183.363 444.258 188.116 443.175 193.393 443.175C198.67 443.175 203.385 444.258 207.577 446.463C211.731 448.667 215.024 451.731 217.382 455.617C219.739 459.54 220.937 463.949 220.937 468.919C220.937 473.888 219.739 478.335 217.382 482.221C215.024 486.144 211.768 489.208 207.577 491.375C203.423 493.579 198.67 494.663 193.393 494.663C188.116 494.7 183.363 493.579 179.172 491.375ZM202.599 479.007C204.994 476.504 206.192 473.141 206.192 468.919C206.192 464.697 204.994 461.334 202.599 458.831C200.204 456.327 197.135 455.057 193.43 455.057C189.688 455.057 186.619 456.327 184.187 458.831C181.754 461.334 180.556 464.697 180.556 468.919C180.556 473.141 181.754 476.504 184.187 479.007C186.619 481.511 189.688 482.781 193.43 482.781C197.135 482.781 200.204 481.511 202.599 479.007Z" fill="#4E50CE"/>
<path d="M276.404 443.849V493.954H261.846V455.768H245.978L245.529 464.623C245.267 471.199 244.668 476.655 243.658 481.026C242.647 485.361 241.038 488.798 238.793 491.264C236.547 493.73 233.441 495.001 229.474 495.001C227.378 495.001 224.834 494.627 221.915 493.88L222.663 481.96C223.673 482.072 224.385 482.147 224.796 482.147C226.967 482.147 228.613 481.363 229.699 479.756C230.784 478.187 231.533 476.169 231.907 473.703C232.281 471.237 232.543 468.023 232.73 463.988L233.479 443.886H276.404V443.849Z" fill="#4E50CE"/>
<path d="M325.956 448.631C330.11 452.33 332.206 457.897 332.206 465.333V493.916H318.584V487.677C315.852 492.347 310.762 494.664 303.277 494.664C299.423 494.664 296.092 494.029 293.248 492.721C290.403 491.413 288.27 489.62 286.773 487.303C285.276 485.024 284.528 482.408 284.528 479.494C284.528 474.823 286.287 471.162 289.805 468.509C293.323 465.856 298.749 464.511 306.084 464.511H317.648C317.648 461.335 316.675 458.906 314.767 457.187C312.82 455.468 309.939 454.609 306.084 454.609C303.427 454.609 300.77 455.02 298.188 455.879C295.605 456.701 293.397 457.86 291.601 459.28L286.362 449.116C289.094 447.211 292.387 445.716 296.204 444.633C300.021 443.587 303.951 443.063 307.993 443.063C315.814 443.101 321.765 444.969 325.956 448.631ZM313.532 483.193C315.44 482.035 316.825 480.353 317.648 478.111V472.992H307.656C301.705 472.992 298.712 474.935 298.712 478.859C298.712 480.727 299.46 482.184 300.92 483.268C302.379 484.351 304.4 484.912 306.945 484.912C309.415 484.912 311.623 484.351 313.532 483.193Z" fill="#4E50CE"/>
<path d="M75.4851 249.669C75.5226 249.669 72.6783 252.322 71.1814 253.705C60.0664 265.101 52.0951 261.178 48.2404 257.591C48.1656 257.516 48.0533 257.441 47.9784 257.329C47.8287 257.217 47.7165 257.068 47.6042 256.955C47.4919 256.806 47.3422 256.694 47.23 256.582C47.1177 256.47 47.0428 256.358 46.968 256.283C46.8931 256.208 46.8183 256.096 46.7434 256.021L46.706 255.984C46.6686 255.947 46.6312 255.872 46.5938 255.835C48.7643 258.973 50.9724 261.813 53.143 264.503H53.1055C53.2927 264.765 53.5172 264.952 53.7417 265.213C54.0786 265.624 54.4528 266.11 54.7896 266.521C54.9767 266.745 55.2013 266.969 55.3884 267.193C55.7252 267.567 56.0246 267.941 56.3614 268.314C56.8105 268.8 57.2222 269.286 57.6713 269.771C57.9332 270.07 58.1952 270.295 58.4572 270.556C59.2431 271.378 59.9916 272.163 60.7775 272.947C62.499 274.666 64.2205 276.273 65.8297 277.581C70.9568 281.99 76.3833 285.913 81.5478 289.313L91.6149 273.994C93.1493 271.677 94.8334 269.248 96.5923 266.708C116.876 239.432 146.291 218.657 184.464 209.054C184.352 209.017 120.993 207.074 75.4851 249.669Z" fill="#F4794F"/>
<path d="M46.5938 255.833C46.706 255.982 46.7809 256.131 46.8931 256.281C46.968 256.356 47.0428 256.43 47.1177 256.542C46.9306 256.318 46.7809 256.094 46.5938 255.833Z" fill="#4E50CE"/>
<path d="M46.5514 255.759C46.5888 255.796 46.6262 255.871 46.6636 255.908C46.6636 255.908 46.6636 255.946 46.701 255.946C46.7759 256.02 46.8507 256.132 46.9256 256.207C47.0004 256.319 47.1127 256.431 47.1876 256.506C47.2998 256.618 47.4121 256.768 47.5618 256.88C47.6741 256.992 47.8238 257.141 47.936 257.253C48.0109 257.328 48.1232 257.403 48.198 257.515C52.0527 261.102 59.9866 265.062 71.139 253.629C72.4488 252.433 74.6943 250.341 75.2182 249.818C68.8935 247.352 42.6218 235.881 24.8828 209.352C28.9995 224.485 35.4364 238.683 43.782 251.537C43.8194 251.574 44.8673 253.255 46.5514 255.759Z" fill="#4E51CE"/>
<path d="M47.4554 257.029C47.4554 257.029 47.4554 257.066 47.5308 257.104C47.4177 256.954 47.3045 256.803 47.1914 256.653C47.2668 256.803 47.3422 256.916 47.4554 257.029Z" fill="#1D4AB3"/>
<path d="M321.136 135.635L293.105 192.392L291.833 194.932C299.28 207.562 305.081 220.714 308.711 234.24C318.741 213.914 324.429 191.046 324.429 166.872C324.429 156.148 323.269 145.723 321.136 135.635Z" fill="#F4794F"/>
<path d="M195.166 16.6265C187.419 15.3935 179.485 14.6836 171.364 14.6836C114.218 14.6836 64.4062 45.995 38.1719 92.3643C53.7029 88.2542 82.1826 82.6121 115.415 84.9287C129.898 57.8769 154.411 32.5812 195.166 16.6265Z" fill="#F4794F"/>
<path d="M47.5664 256.957C47.4539 256.845 47.3039 256.695 47.1914 256.583C47.3414 256.695 47.4539 256.807 47.5664 256.957Z" fill="#F16522"/>
<path d="M46.928 256.247C46.8526 256.134 46.7395 256.021 46.6641 255.946C46.6641 255.946 46.6641 255.983 46.7018 255.983C46.7772 256.059 46.8526 256.134 46.928 256.247Z" fill="#F16522"/>
<path d="M48.2405 257.59C48.1651 257.515 48.052 257.44 47.9766 257.327C48.052 257.402 48.1274 257.477 48.2405 257.59Z" fill="#F16522"/>
<path d="M269.571 230.574C270.881 227.697 272.003 224.708 273.164 221.756L269.571 230.574Z" fill="#1D4AB3"/>
<path d="M57.7066 155.963C57.2201 155.963 56.771 156.038 56.3219 156.113C51.7561 156.785 48.2383 160.671 48.2383 165.379C48.2383 170.573 52.4672 174.795 57.7066 174.795C59.241 174.795 60.6631 174.384 61.9729 173.749C65.0417 172.217 67.2123 169.078 67.2123 165.379C67.1749 160.185 62.9459 155.963 57.7066 155.963Z" fill="#4E51CE"/>
<path d="M321.136 135.633L354.107 68.8627L348.156 68.3022H348.044L309.984 65.612L323.569 33.3291H316.383V33.2917L275.366 35.1599L286.406 0H280.044C245.914 1.71876 218.033 7.73444 195.204 16.6272C154.449 32.5444 129.936 57.8402 115.491 84.9294C106.247 102.229 101.082 120.276 98.4628 137.09C88.8822 128.795 75.4095 120.5 60.0282 120.5C56.8472 120.5 53.5539 120.874 50.1857 121.659C25.8226 127.45 23.6146 141.312 11.6015 147.702C8.64496 149.271 5.08968 150.429 0.411665 150.84L1.23499 151.102L0 150.915L8.90693 159.471L21.3317 171.391L23.7269 173.707L26.7208 176.584C26.7208 176.584 26.9079 175.463 27.2822 173.707C27.6938 171.876 28.3675 169.298 29.3779 166.309C30.6877 162.461 32.5964 157.977 35.2161 153.792C35.9271 152.671 36.6382 151.588 37.4615 150.541C39.4076 148.001 41.653 145.684 44.2727 143.778C46.8549 142.172 49.9612 140.827 54.4895 139.743C56.3607 139.295 58.157 139.108 60.0282 139.108C68.3738 139.108 76.6071 143.554 83.4183 148.86C95.2443 159.21 115.453 184.394 115.453 184.394C115.453 184.394 114.555 180.732 114.031 174.604C112.871 151.326 115.902 117.922 136.149 88.1054C155.085 60.2315 192.135 36.1688 227.538 29.4805C237.98 27.5002 253.024 27.0892 253.024 27.0892L202.988 219.927C202.988 219.927 150.482 226.13 122.227 271.415C122.152 271.453 122.077 271.49 122.003 271.527C120.955 273.134 119.944 274.778 118.934 276.534C119.009 276.46 119.121 276.385 119.196 276.31C116.726 280.495 114.368 284.941 112.085 289.761C111.861 290.284 111.599 290.807 111.374 291.331C110.476 293.311 109.54 295.329 108.68 297.421C109.615 297.645 110.551 297.832 111.449 298.019C110.476 297.832 109.54 297.645 108.605 297.384C107.968 298.916 107.37 300.522 106.733 302.092C106.771 302.092 106.771 302.054 106.808 302.054C106.359 303.212 105.873 304.333 105.461 305.529L105.386 305.566C116.576 310.947 139.779 320.288 166.649 320.288C274.917 320.288 308.636 234.275 308.636 234.275C305.006 220.749 299.206 207.597 291.758 194.968L293.031 192.427L321.136 135.633ZM141.65 263.419C142.212 262.859 142.848 262.373 143.409 261.85C146.104 259.421 148.836 257.179 151.68 255.162C151.979 254.938 152.316 254.676 152.615 254.489C154.337 253.294 156.096 252.21 157.855 251.164C158.004 251.089 158.154 250.977 158.304 250.902C160.175 249.819 162.009 248.81 163.88 247.876C163.917 247.876 163.917 247.838 163.955 247.838C188.093 235.658 211.895 235.732 212.232 235.732H212.269V235.695L212.307 235.62L212.718 234.238L261.856 78.2038L268.293 57.6907L288.053 56.5324L279.633 79.5863V79.6236L220.166 246.904C218.632 246.755 217.209 246.717 215.712 246.568C197.899 245.185 183.228 247.128 171.515 250.379C171.477 250.379 171.477 250.379 171.44 250.379C159.763 253.63 151.081 258.188 145.205 262.074C138.843 266.296 135.662 269.697 135.662 269.697C137.608 267.492 139.592 265.4 141.65 263.419ZM234.911 272.051C234.537 271.938 234.2 271.864 233.863 271.752C229.522 270.406 225.33 269.323 221.214 268.426C220.877 268.351 220.503 268.277 220.166 268.202C216.199 267.38 212.307 266.745 208.527 266.259C208.49 266.259 208.49 266.259 208.452 266.259C172.151 261.887 146.178 273.657 137.646 278.29C137.571 278.328 137.534 278.365 137.459 278.365C136.897 278.664 136.373 278.963 135.962 279.187C135.849 279.262 135.775 279.299 135.7 279.337C135.4 279.523 135.101 279.673 134.951 279.785C134.764 279.897 134.614 280.009 134.614 280.009C166.837 248.623 228.1 260.057 228.1 260.057V260.019L297.783 83.2853L320.051 84.8546L234.911 272.051Z" fill="#4E51CE"/>
</svg>
