<svg width="20" height="20" viewBox="0 0 20 20" fill="none" xmlns="http://www.w3.org/2000/svg">
<g clip-path="url(#clip0)">
<path d="M19.9697 10C19.9697 11.4675 19.9849 12.9501 19.9697 14.4175C19.9395 16.6415 18.9107 18.2905 16.9743 19.3646C16.2027 19.7882 15.3555 19.9849 14.4781 19.9849C11.4826 19.9849 8.48714 20.0151 5.50681 19.9697C3.2829 19.9395 1.64902 18.8654 0.605144 16.9138C0.166415 16.1422 0 15.295 0 14.4175C0 11.4675 0 8.5174 0 5.56732C0 3.26778 1.39183 1.22542 3.52496 0.393344C4.16036 0.151286 4.81089 0.0151289 5.49168 0.0151289C8.48714 0.0151289 11.4826 -0.0151283 14.4781 0.0302575C16.702 0.0605147 18.3359 1.13464 19.3797 3.08623C19.8033 3.87292 19.9697 4.72012 19.9697 5.61271C19.9697 7.06505 19.9697 8.53253 19.9697 10ZM9.98487 15.5371C13.056 15.5371 15.5219 13.0711 15.5371 10C15.5371 6.94403 13.0711 4.46294 10.0303 4.44781C6.94402 4.43268 4.43268 6.9289 4.44781 10C4.44781 13.056 6.91377 15.5371 9.98487 15.5371ZM17.7458 3.34342C17.7458 2.73828 17.2617 2.23903 16.6415 2.23903C16.0212 2.23903 15.5371 2.72315 15.5371 3.34342C15.5371 3.94856 16.0363 4.44781 16.6415 4.44781C17.2617 4.44781 17.7458 3.94856 17.7458 3.34342Z" fill="#527FE8"/>
<path d="M9.98454 13.3283C8.13885 13.3283 6.65625 11.8457 6.65625 10C6.65625 8.15436 8.13885 6.67175 9.98454 6.67175C11.8302 6.67175 13.3128 8.15436 13.3128 10C13.3128 11.8457 11.8302 13.3283 9.98454 13.3283Z" fill="#527FE8"/>
</g>
<defs>
<clipPath id="clip0">
<rect width="19.9849" height="20" fill="white"/>
</clipPath>
</defs>
</svg>
