<svg width="167" height="103" viewBox="0 0 167 103" fill="none" xmlns="http://www.w3.org/2000/svg">
<path d="M1.45826 100.025C0.995882 99.7711 0.64021 99.4206 0.379384 98.9735C0.130413 98.5263 0 98.0186 0 97.4506C0 96.8826 0.130413 96.3749 0.39124 95.9278C0.652066 95.4806 1.00774 95.1301 1.47011 94.8883C1.93249 94.6345 2.44228 94.5137 3.01136 94.5137C3.59229 94.5137 4.10209 94.6345 4.56446 94.8883C5.02683 95.1422 5.38251 95.4927 5.63148 95.9278C5.8923 96.3749 6.02272 96.8826 6.02272 97.4506C6.02272 98.0186 5.8923 98.5263 5.63148 98.9735C5.37065 99.4206 5.01498 99.7711 4.56446 100.025C4.10209 100.279 3.59229 100.4 3.01136 100.4C2.43043 100.4 1.92063 100.279 1.45826 100.025ZM4.20879 98.7559C4.52889 98.4296 4.68302 97.9945 4.68302 97.4506C4.68302 96.9067 4.52889 96.4716 4.20879 96.1453C3.88868 95.819 3.48559 95.6498 2.9995 95.6498C2.51342 95.6498 2.11032 95.819 1.80207 96.1453C1.49382 96.4716 1.32784 96.9067 1.32784 97.4506C1.32784 97.9945 1.48197 98.4296 1.80207 98.7559C2.12218 99.0822 2.51342 99.2514 2.9995 99.2514C3.48559 99.2514 3.88868 99.0822 4.20879 98.7559Z" fill="#4E51CE"/>
<path d="M11.9968 95.2025C12.3998 95.4321 12.72 95.7584 12.9571 96.1814C13.1823 96.5924 13.3009 97.0758 13.3009 97.6197C13.3009 98.1757 13.1705 98.6591 12.9215 99.0942C12.6725 99.5172 12.3169 99.8556 11.8545 100.085C11.3921 100.315 10.8705 100.436 10.2895 100.436C9.3055 100.436 8.54673 100.109 8.01322 99.4447C7.47971 98.78 7.20703 97.8372 7.20703 96.5924C7.20703 95.4321 7.456 94.5256 7.94209 93.8488C8.42817 93.172 9.17508 92.7248 10.171 92.5073L12.7911 91.9392L12.9808 93.1478L10.5978 93.6434C9.91014 93.7884 9.40034 94.0301 9.06838 94.3806C8.72457 94.7311 8.53487 95.2146 8.4756 95.8309C8.72457 95.5167 9.03282 95.2871 9.40034 95.1179C9.76787 94.9487 10.1591 94.8641 10.5859 94.8641C11.1194 94.852 11.5818 94.9728 11.9968 95.2025ZM11.4988 98.8646C11.7952 98.5503 11.9493 98.1394 11.9493 97.6439C11.9493 97.1483 11.7952 96.7495 11.4988 96.4473C11.2024 96.1452 10.8112 96.0002 10.3251 96.0002C9.82715 96.0002 9.43591 96.1452 9.12766 96.4473C8.81941 96.7495 8.67714 97.1483 8.67714 97.6439C8.67714 98.1515 8.83127 98.5624 9.13952 98.8766C9.44777 99.1909 9.83901 99.348 10.3251 99.348C10.7993 99.348 11.1906 99.1909 11.4988 98.8646Z" fill="#4E51CE"/>
<path d="M19.3958 94.8761C19.8345 95.1179 20.1664 95.4684 20.4154 95.9155C20.6644 96.3627 20.7829 96.8703 20.7829 97.4505C20.7829 98.0306 20.6644 98.5503 20.4154 98.9975C20.1664 99.4447 19.8345 99.7952 19.3958 100.037C18.9571 100.279 18.471 100.4 17.9257 100.4C17.1669 100.4 16.5623 100.146 16.1236 99.626V102.418H14.8076V94.574H16.0643V95.3233C16.2777 95.0453 16.5504 94.8399 16.8705 94.7069C17.1906 94.574 17.5463 94.5015 17.9375 94.5015C18.471 94.5136 18.9571 94.6344 19.3958 94.8761ZM18.969 98.7558C19.2772 98.4295 19.4432 97.9944 19.4432 97.4505C19.4432 96.9066 19.2891 96.4715 18.969 96.1452C18.6607 95.8189 18.2576 95.6496 17.7716 95.6496C17.4514 95.6496 17.1669 95.7222 16.9179 95.8672C16.669 96.0122 16.4674 96.2298 16.3133 96.4957C16.171 96.7737 16.088 97.0879 16.088 97.4384C16.088 97.801 16.1592 98.1152 16.3133 98.3811C16.4674 98.6591 16.6571 98.8646 16.9179 99.0096C17.1669 99.1546 17.4514 99.2271 17.7716 99.2271C18.2576 99.2513 18.6607 99.0821 18.969 98.7558Z" fill="#4E51CE"/>
<path d="M26.2351 95.1181C26.6738 95.529 26.899 96.1333 26.899 96.9552V100.327H25.6542V99.6262C25.4882 99.88 25.2629 100.073 24.9665 100.206C24.6701 100.339 24.3026 100.412 23.8877 100.412C23.4609 100.412 23.0933 100.339 22.7732 100.194C22.4531 100.049 22.216 99.8438 22.0382 99.5779C21.8603 99.312 21.7773 99.0219 21.7773 98.6835C21.7773 98.1638 21.967 97.7529 22.3464 97.4386C22.7258 97.1244 23.3186 96.9673 24.1248 96.9673H25.583V96.8827C25.583 96.4838 25.4645 96.1696 25.2274 95.952C24.9903 95.7345 24.6346 95.6257 24.1722 95.6257C23.8521 95.6257 23.5439 95.6741 23.2356 95.7707C22.9274 95.8674 22.6665 96.0125 22.4531 96.1938L21.9315 95.2148C22.2279 94.9851 22.5835 94.8039 22.9985 94.683C23.4134 94.5621 23.8521 94.5017 24.3145 94.5017C25.1681 94.5138 25.7964 94.7193 26.2351 95.1181ZM25.0377 99.1911C25.2985 99.034 25.4763 98.8165 25.583 98.5264V97.8617H24.2196C23.4609 97.8617 23.0815 98.1155 23.0815 98.6231C23.0815 98.8648 23.1763 99.0582 23.366 99.2032C23.5557 99.3482 23.8165 99.4208 24.1603 99.4208C24.4805 99.4208 24.7768 99.3482 25.0377 99.1911Z" fill="#4E51CE"/>
<path d="M32.8642 97.825C33.0539 98.0547 33.1606 98.3206 33.1606 98.6348C33.1606 98.9853 33.0421 99.2995 32.8168 99.5654C32.5797 99.8313 32.2596 100.049 31.8565 100.194C31.4534 100.339 30.9792 100.424 30.4575 100.424C30.0188 100.424 29.592 100.375 29.1771 100.266C28.7621 100.158 28.3827 100.013 28.0508 99.8192L28.4302 98.8161C28.7028 98.9732 29.0111 99.0941 29.3549 99.1787C29.6987 99.2633 30.0425 99.3116 30.3864 99.3116C30.825 99.3116 31.1807 99.2391 31.4297 99.1062C31.6786 98.9611 31.8091 98.7798 31.8091 98.526C31.8091 98.3085 31.7142 98.1272 31.5127 98.0063C31.323 97.8855 31.0503 97.825 30.6946 97.825H29.592V96.9186H30.5879C30.9199 96.9186 31.1807 96.8581 31.3704 96.7494C31.5601 96.6406 31.6549 96.4714 31.6549 96.2659C31.6549 96.0605 31.5364 95.8912 31.3111 95.7704C31.0859 95.6495 30.7776 95.5891 30.3864 95.5891C29.8173 95.5891 29.2245 95.7341 28.5961 96.0121L28.2523 95.0211C28.9874 94.6706 29.7343 94.4893 30.4931 94.4893C30.9673 94.4893 31.406 94.5497 31.7853 94.6947C32.1647 94.8277 32.4611 95.009 32.6745 95.2507C32.8879 95.4924 32.9946 95.7704 32.9946 96.0725C32.9946 96.3505 32.9116 96.6043 32.7457 96.8219C32.5797 97.0394 32.3426 97.2086 32.0462 97.3295C32.4018 97.4383 32.6745 97.5954 32.8642 97.825Z" fill="#4E51CE"/>
<path d="M35.7201 100.025C35.2577 99.7709 34.9021 99.4204 34.6412 98.9732C34.3804 98.526 34.25 98.0184 34.25 97.4504C34.25 96.8823 34.3804 96.3747 34.6412 95.9275C34.9021 95.4803 35.2577 95.1298 35.7201 94.8881C36.1825 94.6343 36.6923 94.5134 37.2614 94.5134C37.8423 94.5134 38.3521 94.6343 38.8145 94.8881C39.2768 95.1419 39.6325 95.4924 39.8815 95.9275C40.1423 96.3747 40.2727 96.8823 40.2727 97.4504C40.2727 98.0184 40.1423 98.526 39.8815 98.9732C39.6207 99.4204 39.265 99.7709 38.8145 100.025C38.3521 100.279 37.8423 100.399 37.2614 100.399C36.6923 100.399 36.1706 100.279 35.7201 100.025ZM38.4706 98.7557C38.7908 98.4293 38.9449 97.9942 38.9449 97.4504C38.9449 96.9065 38.7908 96.4714 38.4706 96.1451C38.1505 95.8187 37.7474 95.6495 37.2614 95.6495C36.7753 95.6495 36.3722 95.8187 36.0639 96.1451C35.7557 96.4714 35.5897 96.9065 35.5897 97.4504C35.5897 97.9942 35.7438 98.4293 36.0639 98.7557C36.384 99.082 36.7753 99.2512 37.2614 99.2512C37.7474 99.2512 38.1505 99.082 38.4706 98.7557Z" fill="#4E51CE"/>
<path d="M46.9266 98.7074C46.9266 99.2271 46.7369 99.626 46.3576 99.904C45.9782 100.182 45.4091 100.327 44.6622 100.327H41.7812V94.574H44.5436C45.2313 94.574 45.7766 94.7069 46.156 94.9607C46.5473 95.2145 46.7369 95.5892 46.7369 96.0606C46.7369 96.3506 46.6658 96.6044 46.5117 96.822C46.3576 97.0395 46.1442 97.2087 45.8715 97.3296C46.571 97.5472 46.9266 98.0064 46.9266 98.7074ZM43.0498 96.9791H44.4369C45.1246 96.9791 45.4565 96.7374 45.4565 96.2539C45.4565 95.7826 45.1127 95.5529 44.4369 95.5529H43.0498V96.9791ZM45.6462 98.6228C45.6462 98.369 45.5632 98.1877 45.3973 98.0548C45.2313 97.9339 44.9586 97.8614 44.6029 97.8614H43.0498V99.3359H44.5555C45.2787 99.348 45.6462 99.1063 45.6462 98.6228Z" fill="#4E51CE"/>
<path d="M52.5554 95.1181C52.9941 95.529 53.2193 96.1333 53.2193 96.9552V100.327H51.9745V99.6262C51.8085 99.88 51.5832 100.073 51.2868 100.206C50.9905 100.339 50.6229 100.412 50.208 100.412C49.7812 100.412 49.4136 100.339 49.0935 100.194C48.7734 100.049 48.5363 99.8438 48.3585 99.5779C48.1806 99.312 48.0977 99.0219 48.0977 98.6835C48.0977 98.1638 48.2873 97.7529 48.6667 97.4386C49.0461 97.1244 49.6389 96.9673 50.4451 96.9673H51.9033V96.8827C51.9033 96.4838 51.7848 96.1696 51.5477 95.952C51.3106 95.7345 50.9549 95.6257 50.4925 95.6257C50.1724 95.6257 49.8642 95.6741 49.5559 95.7707C49.2477 95.8674 48.9868 96.0125 48.7734 96.1938L48.2518 95.2148C48.5482 94.9851 48.9038 94.8039 49.3188 94.683C49.7337 94.5621 50.1724 94.5017 50.6348 94.5017C51.4765 94.5138 52.1049 94.7193 52.5554 95.1181ZM51.3461 99.1911C51.607 99.034 51.7848 98.8165 51.8915 98.5264V97.8617H50.5281C49.7693 97.8617 49.3899 98.1155 49.3899 98.6231C49.3899 98.8648 49.4848 99.0582 49.6745 99.2032C49.8642 99.3482 50.125 99.4208 50.4688 99.4208C50.7889 99.4208 51.0853 99.3482 51.3461 99.1911Z" fill="#4E51CE"/>
<path d="M59.526 95.7222H57.546V100.339H56.2301V95.7222H54.2383V94.574H59.526V95.7222Z" fill="#4E51CE"/>
<path d="M65.7267 97.8851H61.2927C61.3757 98.3081 61.5772 98.6465 61.8973 98.8882C62.2174 99.13 62.6324 99.2629 63.1185 99.2629C63.735 99.2629 64.2448 99.0575 64.6479 98.6344L65.3592 99.4684C65.1103 99.7826 64.7901 100.012 64.3989 100.169C64.0077 100.326 63.569 100.411 63.0829 100.411C62.4664 100.411 61.921 100.29 61.4468 100.036C60.9726 99.7826 60.6051 99.4321 60.3561 98.9849C60.0953 98.5377 59.9648 98.0301 59.9648 97.4621C59.9648 96.9061 60.0953 96.3985 60.3442 95.9513C60.5932 95.5041 60.937 95.1536 61.3875 94.8998C61.8262 94.646 62.336 94.5251 62.8932 94.5251C63.4386 94.5251 63.9365 94.646 64.3633 94.8998C64.7901 95.1536 65.134 95.492 65.3829 95.9392C65.6319 96.3864 65.7505 96.9061 65.7505 97.4983C65.7505 97.5829 65.7386 97.7159 65.7267 97.8851ZM61.8262 95.9755C61.5298 96.2293 61.352 96.5677 61.2927 96.9907H64.4938C64.4345 96.5798 64.2685 96.2414 63.9721 95.9755C63.6876 95.7217 63.32 95.5887 62.8932 95.5887C62.4664 95.5887 62.1107 95.7096 61.8262 95.9755Z" fill="#4E51CE"/>
<path d="M72.4503 94.574V100.327H71.1344V95.7222H69.024L68.9766 96.8703C68.941 97.6318 68.8699 98.2723 68.7751 98.78C68.6684 99.2997 68.5024 99.6985 68.2534 100.001C68.0044 100.303 67.6725 100.448 67.2575 100.448C67.056 100.448 66.8189 100.412 66.5225 100.327L66.5817 99.1909C66.6766 99.2151 66.7596 99.2271 66.8307 99.2271C67.1034 99.2271 67.3049 99.1184 67.4354 98.9008C67.5658 98.6833 67.6606 98.4174 67.6962 98.1152C67.7317 97.8131 67.7673 97.378 67.791 96.8099L67.8859 94.5861H72.4503V94.574Z" fill="#4E51CE"/>
<path d="M78.9239 96.967C79.3033 97.2934 79.5048 97.7647 79.5048 98.369C79.5048 98.9975 79.2914 99.493 78.8764 99.8314C78.4496 100.182 77.8568 100.339 77.0862 100.339L74.4424 100.327V94.574H75.7584V96.4594L77.2759 96.4715C77.9873 96.4715 78.5445 96.6407 78.9239 96.967ZM77.8568 99.1063C78.0584 98.9371 78.1651 98.6833 78.1651 98.3569C78.1651 98.0306 78.0703 97.801 77.8687 97.6439C77.6672 97.4867 77.3708 97.4142 76.9677 97.4021L75.7584 97.39V99.3359L76.9677 99.348C77.347 99.3601 77.6434 99.2755 77.8568 99.1063Z" fill="#4E51CE"/>
<path d="M80.8799 94.574H82.1959V96.9066H85.0413V94.574H86.3572V100.327H85.0413V98.0548H82.1959V100.327H80.8799V94.574Z" fill="#4E51CE"/>
<path d="M92.7461 96.967C93.1255 97.2934 93.3152 97.7647 93.3152 98.369C93.3152 98.9975 93.1018 99.493 92.6869 99.8314C92.2719 100.182 91.6791 100.339 90.9085 100.339L88.3477 100.327V94.574H89.6636V96.4594L91.0863 96.4715C91.8095 96.4715 92.3668 96.6407 92.7461 96.967ZM91.6791 99.1063C91.8807 98.9371 91.9874 98.6833 91.9874 98.3569C91.9874 98.0306 91.8925 97.801 91.691 97.6439C91.4894 97.4867 91.193 97.4142 90.7899 97.4021L89.6636 97.39V99.3359L90.7899 99.348C91.1812 99.3601 91.4776 99.2755 91.6791 99.1063ZM94.0503 94.574H95.3662V100.327H94.0503V94.574Z" fill="#4E51CE"/>
<path d="M97.3594 94.5739H98.6754V98.369L101.793 94.5739H103.003V100.327H101.687V96.5319L98.5805 100.327H97.3594V94.5739ZM98.7821 93.4862C98.4857 93.2203 98.3315 92.8215 98.3197 92.3018H99.197C99.2089 92.5556 99.28 92.761 99.4341 92.9181C99.5883 93.0632 99.8017 93.1478 100.074 93.1478C100.347 93.1478 100.56 93.0753 100.715 92.9181C100.869 92.761 100.952 92.5677 100.964 92.3018H101.865C101.853 92.8215 101.699 93.2082 101.402 93.4862C101.094 93.7521 100.667 93.885 100.086 93.885C99.5053 93.885 99.0903 93.7642 98.7821 93.4862Z" fill="#4E51CE"/>
<path d="M110.46 98.0185H109.428V100.327H108.112V94.574H109.428V96.9066H110.483L112.155 94.574H113.566L111.515 97.3417L113.708 100.327H112.155L110.46 98.0185Z" fill="#4E51CE"/>
<path d="M115.642 100.025C115.18 99.7709 114.824 99.4204 114.563 98.9732C114.302 98.526 114.172 98.0184 114.172 97.4504C114.172 96.8823 114.302 96.3747 114.563 95.9275C114.824 95.4803 115.18 95.1298 115.642 94.8881C116.104 94.6343 116.614 94.5134 117.183 94.5134C117.764 94.5134 118.274 94.6343 118.736 94.8881C119.199 95.1419 119.554 95.4924 119.803 95.9275C120.064 96.3747 120.195 96.8823 120.195 97.4504C120.195 98.0184 120.064 98.526 119.803 98.9732C119.543 99.4204 119.187 99.7709 118.736 100.025C118.274 100.279 117.764 100.399 117.183 100.399C116.614 100.399 116.104 100.279 115.642 100.025ZM118.393 98.7557C118.713 98.4293 118.867 97.9942 118.867 97.4504C118.867 96.9065 118.713 96.4714 118.393 96.1451C118.072 95.8187 117.669 95.6495 117.183 95.6495C116.697 95.6495 116.294 95.8187 115.986 96.1451C115.678 96.4714 115.512 96.9065 115.512 97.4504C115.512 97.9942 115.666 98.4293 115.986 98.7557C116.306 99.082 116.697 99.2512 117.183 99.2512C117.669 99.2512 118.072 99.082 118.393 98.7557Z" fill="#4E51CE"/>
<path d="M127.259 100.327V96.5078L125.362 99.7227H124.793L122.92 96.4957V100.327H121.711V94.574H123.098L125.102 98.1756L127.2 94.574H128.433L128.445 100.327H127.259Z" fill="#4E51CE"/>
<path d="M135.855 94.574V100.327H134.539V95.7222H131.753V100.339H130.437V94.5861H135.855V94.574Z" fill="#4E51CE"/>
<path d="M142.967 94.574V100.327H141.651V95.7222H139.541L139.493 96.8703C139.458 97.6318 139.387 98.2723 139.292 98.78C139.185 99.2997 139.019 99.6985 138.77 100.001C138.521 100.303 138.189 100.448 137.774 100.448C137.573 100.448 137.335 100.412 137.039 100.327L137.098 99.1909C137.193 99.2151 137.276 99.2271 137.347 99.2271C137.62 99.2271 137.822 99.1184 137.952 98.9008C138.082 98.6833 138.177 98.4174 138.213 98.1152C138.248 97.8131 138.284 97.378 138.308 96.8099L138.402 94.5861H142.967V94.574Z" fill="#4E51CE"/>
<path d="M150.223 97.8851H145.789C145.872 98.3081 146.073 98.6465 146.393 98.8882C146.714 99.13 147.128 99.2629 147.615 99.2629C148.231 99.2629 148.741 99.0575 149.144 98.6344L149.855 99.4684C149.606 99.7826 149.286 100.012 148.895 100.169C148.504 100.326 148.065 100.411 147.579 100.411C146.963 100.411 146.417 100.29 145.943 100.036C145.469 99.7826 145.101 99.4321 144.852 98.9849C144.591 98.5377 144.461 98.0301 144.461 97.4621C144.461 96.9061 144.591 96.3985 144.84 95.9513C145.089 95.5041 145.433 95.1536 145.884 94.8998C146.322 94.646 146.832 94.5251 147.389 94.5251C147.935 94.5251 148.433 94.646 148.859 94.8998C149.286 95.1536 149.63 95.492 149.879 95.9392C150.128 96.3864 150.247 96.9061 150.247 97.4983C150.235 97.5829 150.235 97.7159 150.223 97.8851ZM146.31 95.9755C146.014 96.2293 145.836 96.5677 145.777 96.9907H148.978C148.919 96.5798 148.753 96.2414 148.456 95.9755C148.172 95.7217 147.804 95.5887 147.377 95.5887C146.963 95.5887 146.607 95.7096 146.31 95.9755Z" fill="#4E51CE"/>
<path d="M154.242 98.0185H153.211V100.327H151.895V94.574H153.211V96.9066H154.266L155.937 94.574H157.348L155.309 97.3417L157.502 100.327H155.949L154.242 98.0185Z" fill="#4E51CE"/>
<path d="M159.447 100.025C158.984 99.7709 158.617 99.4204 158.356 98.9732C158.095 98.526 157.965 98.0184 157.965 97.4504C157.965 96.8823 158.095 96.3747 158.356 95.9275C158.617 95.4803 158.973 95.1298 159.435 94.8881C159.897 94.6343 160.419 94.5134 161.012 94.5134C161.569 94.5134 162.055 94.6343 162.47 94.8639C162.885 95.0936 163.205 95.4199 163.418 95.855L162.399 96.4593C162.233 96.1934 162.031 96 161.794 95.8671C161.545 95.7341 161.284 95.6616 161 95.6616C160.502 95.6616 160.099 95.8308 159.779 96.1571C159.459 96.4835 159.293 96.9186 159.293 97.4624C159.293 98.0063 159.447 98.4414 159.779 98.7678C160.099 99.0941 160.514 99.2633 161.012 99.2633C161.296 99.2633 161.569 99.2029 161.806 99.0578C162.055 98.9249 162.257 98.7315 162.411 98.4656L163.43 99.0699C163.217 99.505 162.897 99.8313 162.47 100.061C162.055 100.291 161.569 100.411 161.012 100.411C160.431 100.399 159.909 100.279 159.447 100.025Z" fill="#4E51CE"/>
<path d="M0.616211 28.0037H6.89976V36.6815H16.3962V28.0037H22.7272V50.2542H16.3962V41.939H6.89976V50.2542H0.616211V28.0037Z" fill="#4E51CE"/>
<path d="M44.2227 30.1309C46.0367 31.7746 46.9377 34.2401 46.9377 37.5517V50.2422H41.0217V47.4745C39.8361 49.5412 37.6191 50.5806 34.3706 50.5806C32.699 50.5806 31.2407 50.2905 30.0077 49.7104C28.7747 49.1303 27.8381 48.3326 27.186 47.3173C26.534 46.3021 26.2139 45.1418 26.2139 43.8486C26.2139 41.7819 26.9726 40.1503 28.502 38.9658C30.0314 37.7814 32.3907 37.1892 35.5799 37.1892H40.6067C40.6067 35.7872 40.1918 34.6994 39.35 33.938C38.5083 33.1766 37.2516 32.8019 35.5799 32.8019C34.418 32.8019 33.2799 32.9832 32.1536 33.3579C31.0273 33.7325 30.0788 34.2281 29.2964 34.8686L27.0201 30.3605C28.2056 29.5024 29.6402 28.8497 31.3 28.3784C32.9598 27.907 34.667 27.6774 36.4335 27.6774C39.8124 27.6653 42.4088 28.4871 44.2227 30.1309ZM38.8284 45.4682C39.6701 44.9605 40.2629 44.2112 40.6186 43.2201V40.948H36.2794C33.683 40.948 32.3907 41.8182 32.3907 43.5586C32.3907 44.3804 32.7108 45.0451 33.3392 45.5286C33.9794 46.012 34.8448 46.2538 35.9593 46.2538C37.0263 46.2296 37.9866 45.9758 38.8284 45.4682Z" fill="#4E51CE"/>
<path d="M84.9345 28.0037V50.2542H51.6436V28.0037H57.9271V44.9605H65.1828V28.0037H71.4664V44.9605H78.6509V28.0037H84.9345Z" fill="#4E51CE"/>
<path d="M106.476 30.1309C108.29 31.7746 109.191 34.2401 109.191 37.5517V50.2422H103.275V47.4745C102.089 49.5412 99.872 50.5806 96.6235 50.5806C94.9519 50.5806 93.4936 50.2905 92.2606 49.7104C91.0276 49.1303 90.091 48.3326 89.439 47.3173C88.7869 46.3021 88.4668 45.1418 88.4668 43.8486C88.4668 41.7819 89.2256 40.1503 90.755 38.9658C92.2843 37.7814 94.6436 37.1892 97.8328 37.1892H102.86C102.86 35.7872 102.445 34.6994 101.603 33.938C100.761 33.1766 99.5045 32.8019 97.8328 32.8019C96.671 32.8019 95.5328 32.9832 94.4065 33.3579C93.2802 33.7325 92.3318 34.2281 91.5493 34.8686L89.273 30.3605C90.4586 29.5024 91.8931 28.8497 93.5529 28.3784C95.2127 27.907 96.9199 27.6774 98.6864 27.6774C102.065 27.6653 104.662 28.4871 106.476 30.1309ZM101.081 45.4682C101.923 44.9605 102.516 44.2112 102.872 43.2201V40.948H98.5205C95.9241 40.948 94.6318 41.8182 94.6318 43.5586C94.6318 44.3804 94.9519 45.0451 95.5802 45.5286C96.2205 46.012 97.0859 46.2538 98.2004 46.2538C99.2792 46.2296 100.24 45.9758 101.081 45.4682Z" fill="#4E51CE"/>
<path d="M33.919 59.6694V81.92H0.616211V59.6694H6.89976V76.6263H14.1555V59.6694H20.439V76.6263H27.6236V59.6694H33.919Z" fill="#4E51CE"/>
<path d="M48.7976 73.4839H45.5136V81.92H39.1826V59.6694H45.5136V68.311H48.9162L54.8322 59.6694H61.5663L53.943 70.3415L62.0998 81.92H54.6425L48.7976 73.4839Z" fill="#4E51CE"/>
<path d="M67.7655 80.7837C65.9397 79.8047 64.517 78.4511 63.4856 76.7107C62.4541 74.9703 61.9443 73.0002 61.9443 70.8006C61.9443 68.6009 62.4541 66.6187 63.4856 64.8904C64.517 63.15 65.9397 61.7964 67.7655 60.8174C69.5913 59.8384 71.6542 59.355 73.9542 59.355C76.2542 59.355 78.3053 59.8505 80.1192 60.8174C81.9331 61.7964 83.3558 63.15 84.3754 64.8904C85.4068 66.6308 85.9166 68.6009 85.9166 70.8006C85.9166 73.0002 85.4068 74.9824 84.3754 76.7107C83.344 78.4511 81.9331 79.8047 80.1192 80.7837C78.3053 81.7627 76.2542 82.2461 73.9542 82.2461C71.6542 82.2461 69.5913 81.7627 67.7655 80.7837ZM77.9377 75.2845C78.981 74.1726 79.5027 72.6739 79.5027 70.8006C79.5027 68.9272 78.981 67.4285 77.9377 66.3166C76.8944 65.2047 75.5666 64.6366 73.9423 64.6366C72.3181 64.6366 70.9784 65.1926 69.9233 66.3166C68.8681 67.4285 68.3464 68.9272 68.3464 70.8006C68.3464 72.6739 68.8681 74.1726 69.9233 75.2845C70.9784 76.3964 72.3181 76.9645 73.9423 76.9645C75.5666 76.9524 76.8944 76.3964 77.9377 75.2845Z" fill="#4E51CE"/>
<path d="M110.046 59.6694V81.92H103.715V64.9632H96.815L96.6253 68.8912C96.5186 71.816 96.246 74.2332 95.8191 76.167C95.3805 78.1008 94.681 79.6116 93.7088 80.7114C92.7367 81.8112 91.3851 82.3672 89.6542 82.3672C88.7294 82.3672 87.6387 82.198 86.3701 81.8717L86.6902 76.5779C87.117 76.6384 87.4371 76.6626 87.6268 76.6626C88.5753 76.6626 89.2866 76.3121 89.7609 75.6111C90.2351 74.9101 90.5552 74.0157 90.7093 72.9279C90.8753 71.8402 90.9939 70.4019 91.0768 68.6132L91.3969 59.6815H110.046V59.6694Z" fill="#4E51CE"/>
<path d="M131.587 61.7965C133.401 63.4402 134.302 65.9058 134.302 69.2174V81.9078H128.386V79.1401C127.2 81.2069 124.983 82.2463 121.735 82.2463C120.063 82.2463 118.605 81.9562 117.372 81.3761C116.139 80.7959 115.202 79.9982 114.55 78.983C113.898 77.9678 113.578 76.8075 113.578 75.5143C113.578 73.4475 114.337 71.8159 115.866 70.6315C117.396 69.447 119.755 68.8548 122.944 68.8548H127.971C127.971 67.4528 127.556 66.3651 126.714 65.6036C125.873 64.8422 124.616 64.4675 122.944 64.4675C121.782 64.4675 120.644 64.6488 119.518 65.0235C118.392 65.3982 117.443 65.8937 116.661 66.5343L114.384 62.0261C115.57 61.168 117.004 60.5154 118.664 60.044C120.324 59.5727 122.031 59.343 123.798 59.343C127.177 59.343 129.773 60.1649 131.587 61.7965ZM126.193 77.1459C127.034 76.6383 127.627 75.8889 127.983 74.8979V72.6257H123.644C121.047 72.6257 119.755 73.4959 119.755 75.2363C119.755 76.0582 120.075 76.7229 120.703 77.2063C121.344 77.6898 122.209 77.9315 123.324 77.9315C124.391 77.9073 125.351 77.6535 126.193 77.1459Z" fill="#4E51CE"/>
<path d="M124.723 38.6877C124.734 38.6877 124.296 39.0986 124.07 39.3162C122.387 41.0808 121.178 40.4765 120.585 39.9205C120.573 39.9084 120.561 39.8963 120.549 39.8842C120.526 39.8601 120.514 39.848 120.49 39.8238C120.466 39.7996 120.454 39.7876 120.431 39.7634C120.419 39.7513 120.407 39.7271 120.395 39.715C120.383 39.7029 120.372 39.6909 120.36 39.6788C120.36 39.6788 120.36 39.6788 120.36 39.6667C120.36 39.6546 120.348 39.6546 120.336 39.6425C120.668 40.126 121 40.5732 121.332 40.9841H121.32C121.344 41.0203 121.379 41.0566 121.415 41.0929C121.462 41.1533 121.522 41.2258 121.569 41.2983C121.605 41.3346 121.628 41.3708 121.664 41.4071C121.711 41.4675 121.759 41.528 121.818 41.5763C121.889 41.6488 121.948 41.7334 122.019 41.8059C122.055 41.8543 122.102 41.8905 122.138 41.9268C122.257 42.0477 122.375 42.1806 122.494 42.3015C122.755 42.5674 123.015 42.8212 123.264 43.0266C124.047 43.7155 124.865 44.3199 125.647 44.8516L127.177 42.4828C127.414 42.1202 127.663 41.7455 127.935 41.3467C131.006 37.1165 135.476 33.9016 141.273 32.415C141.238 32.3908 131.634 32.0887 124.723 38.6877Z" fill="#F4794F"/>
<path d="M120.337 39.6423C120.349 39.6666 120.36 39.6908 120.384 39.7151C120.396 39.7272 120.408 39.7393 120.419 39.7514C120.396 39.7151 120.372 39.6787 120.337 39.6423Z" fill="#4E51CE"/>
<path d="M120.336 39.6305C120.336 39.6425 120.348 39.6425 120.36 39.6546C120.36 39.6546 120.36 39.6546 120.36 39.6667C120.371 39.6788 120.383 39.6909 120.395 39.703C120.407 39.7151 120.419 39.7392 120.431 39.7513C120.442 39.7755 120.466 39.7876 120.49 39.8118C120.514 39.8359 120.525 39.848 120.549 39.8722C120.561 39.8843 120.573 39.8964 120.585 39.9084C121.166 40.4644 122.375 41.0808 124.07 39.3041C124.272 39.1108 124.604 38.7965 124.687 38.7119C123.727 38.3252 119.743 36.5485 117.052 32.4392C117.68 34.7839 118.652 36.9836 119.921 38.9778C119.921 38.9778 120.075 39.2437 120.336 39.6305Z" fill="#4E51CE"/>
<path d="M161.997 21.0178L157.74 29.8165L157.551 30.2154C158.677 32.1733 159.554 34.2159 160.112 36.3068C161.629 33.1523 162.495 29.6111 162.495 25.8644C162.495 24.1965 162.317 22.5769 161.997 21.0178Z" fill="#F4794F"/>
<path d="M142.886 2.57437C141.712 2.38099 140.503 2.27222 139.27 2.27222C130.603 2.27222 123.039 7.13084 119.056 14.31C121.415 13.6694 125.742 12.7992 130.781 13.1497C132.986 8.96794 136.697 5.05203 142.886 2.57437Z" fill="#F4794F"/>
<path d="M122.021 24.1719C121.949 24.1719 121.878 24.184 121.807 24.196C121.12 24.3048 120.574 24.897 120.574 25.6343C120.574 26.4441 121.214 27.0967 122.009 27.0967C122.246 27.0967 122.459 27.0363 122.649 26.9396C123.111 26.6979 123.443 26.2144 123.443 25.6464C123.467 24.8245 122.815 24.1719 122.021 24.1719Z" fill="#4E51CE"/>
<path d="M161.997 21.0178L167 10.6721L166.099 10.5875H166.075L160.301 10.1765L162.364 5.17287H161.273L155.049 5.46293L156.733 0H155.761C150.58 0.265895 146.347 1.19653 142.885 2.57435C136.696 5.03992 132.974 8.95583 130.792 13.1618C129.393 15.8449 128.611 18.6368 128.208 21.2474C126.75 19.9663 124.71 18.6731 122.375 18.6731C121.889 18.6731 121.391 18.7335 120.881 18.8544C117.182 19.7487 116.85 21.9001 115.024 22.8911C114.574 23.1329 114.028 23.3142 113.329 23.3746L113.459 23.4108L113.27 23.3746L114.621 24.7041L116.506 26.5532L116.874 26.9158L117.324 27.363C117.324 27.363 117.348 27.1938 117.407 26.9158C117.466 26.6258 117.573 26.2269 117.727 25.7676C117.929 25.1633 118.213 24.4744 118.616 23.8218C118.723 23.6526 118.83 23.4834 118.96 23.3142C119.257 22.9274 119.6 22.5648 119.992 22.2627C120.383 22.0089 120.857 21.8034 121.545 21.6342C121.829 21.5617 122.102 21.5375 122.387 21.5375C123.655 21.5375 124.9 22.2264 125.931 23.0483C127.734 24.6557 130.792 28.5595 130.792 28.5595C130.792 28.5595 130.65 27.9915 130.579 27.0488C130.401 23.4471 130.863 18.2742 133.934 13.6452C136.803 9.3305 142.423 5.59588 147.805 4.55647C149.394 4.25432 151.67 4.1818 151.67 4.1818L144.071 34.0708C144.071 34.0708 136.104 35.0377 131.812 42.0477C131.8 42.0477 131.788 42.0598 131.776 42.0598C131.622 42.3136 131.468 42.5674 131.314 42.8333C131.326 42.8212 131.338 42.8091 131.361 42.797C130.994 43.4376 130.626 44.1386 130.283 44.8758C130.247 44.9604 130.211 45.0329 130.176 45.1175C130.034 45.4197 129.903 45.7339 129.761 46.0603C129.903 46.0965 130.045 46.1207 130.188 46.157C130.045 46.1328 129.903 46.0965 129.761 46.0603C129.666 46.302 129.571 46.5437 129.476 46.7975C129.476 46.7975 129.488 46.7975 129.488 46.7854C129.417 46.9667 129.346 47.1359 129.287 47.3172H129.275C130.97 48.1512 134.491 49.6015 138.57 49.6015C155.002 49.6015 160.112 36.2705 160.123 36.2705C159.566 34.1796 158.689 32.137 157.563 30.1791L157.752 29.7802L161.997 21.0178ZM134.764 40.8149C134.847 40.7303 134.942 40.6578 135.037 40.5732C135.44 40.1985 135.867 39.848 136.293 39.5338C136.341 39.4975 136.388 39.4612 136.436 39.425C136.696 39.2437 136.957 39.0745 137.23 38.9053C137.254 38.8932 137.277 38.8811 137.301 38.869C137.586 38.6998 137.858 38.5427 138.143 38.3977C138.143 38.3977 138.143 38.3977 138.155 38.3977C141.818 36.5122 145.434 36.5243 145.482 36.5243V36.5122L145.541 36.2947L152.998 12.1224L153.982 8.94374L156.982 8.76245L155.701 12.3399L146.691 38.2526C146.454 38.2284 146.24 38.2164 146.015 38.2043C143.312 37.9867 141.083 38.2889 139.305 38.7965H139.293C137.526 39.3041 136.199 40.0051 135.309 40.6094C134.337 41.2621 133.863 41.7939 133.863 41.7939C134.147 41.4554 134.444 41.1291 134.764 40.8149ZM148.908 42.1564C148.849 42.1444 148.801 42.1323 148.754 42.1081C148.102 41.9026 147.461 41.7334 146.833 41.6005C146.774 41.5884 146.726 41.5763 146.667 41.5642C146.063 41.4434 145.47 41.3346 144.901 41.2621H144.889C139.376 40.5852 135.44 42.4103 134.147 43.1233C134.136 43.1233 134.124 43.1354 134.124 43.1354C134.041 43.1838 133.958 43.2321 133.899 43.2684C133.887 43.2805 133.875 43.2805 133.863 43.2925C133.816 43.3167 133.768 43.353 133.744 43.3651C133.721 43.3771 133.697 43.4013 133.697 43.4013C138.582 38.5306 147.876 40.3073 147.876 40.3073L158.452 12.9201L161.831 13.1618L148.908 42.1564Z" fill="#4E51CE"/>
</svg>
