<svg width="40" height="40" viewBox="0 0 40 40" fill="none" xmlns="http://www.w3.org/2000/svg">
<path fill-rule="evenodd" clip-rule="evenodd" d="M0 0H40V40H0V0ZM20.2071 7.70049C20.4639 7.70607 20.7095 7.71165 20.9607 7.7284C31.9196 8.25876 40.0033 20.0885 39.9977 20.0885C39.9974 20.0889 39.995 20.0923 39.9906 20.0986C39.7117 20.4979 31.3469 32.4709 20.1959 32.4709C8.87596 32.4709 0.384965 20.4777 0.115911 20.0977C0.111889 20.092 0.109704 20.0889 0.109375 20.0885C0.109375 20.0885 8.32152 8.24759 19.4478 7.72282C19.6935 7.71165 19.9447 7.70049 20.1959 7.70049H20.2015H20.2071Z" fill="#F4794F"/>
<path d="M20.051 28.5329C24.7282 28.5329 28.5199 24.7412 28.5199 20.0639C28.5199 15.3866 24.7282 11.595 20.051 11.595C15.3737 11.595 11.582 15.3866 11.582 20.0639C11.582 24.7412 15.3737 28.5329 20.051 28.5329Z" fill="#F4794F"/>
</svg>
