<svg width="80" height="80" viewBox="0 0 80 80" fill="none" xmlns="http://www.w3.org/2000/svg">
<g clip-path="url(#clip0)">
<path d="M-0.00585938 80.0005L79.9941 80.0005L79.9941 0.000488281L-0.00585937 0.000488281L-0.00585938 80.0005Z" fill="#3C2480"/>
<path d="M9.90764 14.7485H0L9.90764 0H19.8041L9.90764 14.7485Z" fill="white"/>
<path d="M29.9682 14.7485H20.0605L29.9682 0H39.8646L29.9682 14.7485Z" fill="white"/>
<path d="M50.0307 14.7485H40.123L50.0307 0H59.9271L50.0307 14.7485Z" fill="white"/>
<path d="M70.0932 14.7485H60.1855L70.0932 0H80.0008L70.0932 14.7485Z" fill="white"/>
<path d="M70.0932 29.4967H80.0008L70.0932 14.7482H60.1855L70.0932 29.4967Z" fill="white"/>
<path d="M50.0307 29.4967H59.9271L50.0307 14.7482H40.123L50.0307 29.4967Z" fill="white"/>
<path d="M29.9682 29.4967H39.8646L29.9682 14.7482H20.0605L29.9682 29.4967Z" fill="white"/>
<path d="M9.90764 29.4967H19.8041L9.90764 14.7482H0L9.90764 29.4967Z" fill="white"/>
</g>
<defs>
<clipPath id="clip0">
<rect width="80" height="80" fill="white"/>
</clipPath>
</defs>
</svg>
