<svg width="100" height="100" viewBox="0 0 100 100" fill="none" xmlns="http://www.w3.org/2000/svg">
<path fill-rule="evenodd" clip-rule="evenodd" d="M50 100C77.6142 100 100 77.6142 100 50C100 22.3858 77.6142 0 50 0C22.3858 0 0 22.3858 0 50V50.0012V99.9873L14.6403 85.351C23.6889 94.4018 36.1907 100 50 100ZM24.0977 49.9567C24.0977 53.08 26.7767 55.4675 29.9 55.4675C32.9677 55.4675 35.5774 53.0244 35.5774 49.9012C35.5774 46.7779 32.9677 44.3348 29.9 44.3348C26.7073 44.3348 24.0977 46.8889 24.0977 49.9567ZM50.3602 55.4681C47.2369 55.4681 44.5579 53.0805 44.5579 49.9572C44.5579 46.8895 47.1675 44.3354 50.3602 44.3354C53.4279 44.3354 56.0376 46.7784 56.0376 49.9017C56.0376 53.025 53.4279 55.4681 50.3602 55.4681ZM64.9996 49.9572C64.9996 53.0805 67.6787 55.4681 70.8019 55.4681C73.8697 55.4681 76.4932 53.025 76.4793 49.9017C76.4793 46.7784 73.8697 44.3354 70.8019 44.3354C67.6093 44.3354 64.9996 46.8895 64.9996 49.9572Z" fill="#4B69FF"/>
</svg>
