<svg width="21" height="23" viewBox="0 0 21 23" fill="none" xmlns="http://www.w3.org/2000/svg">
<g id="icon/logo/twitter">
<path id="twitter" fill-rule="evenodd" clip-rule="evenodd" d="M20.7642 4.87195C20.0745 5.16751 19.2863 5.36453 18.3996 5.46305C19.1878 4.97044 19.8775 4.18225 20.173 3.29555C19.3849 3.78817 18.4982 4.08373 17.6115 4.28078C16.9218 3.4926 15.8381 3 14.6558 3C12.3898 3 10.6164 4.7734 10.6164 6.94089C10.6164 7.23645 10.6164 7.53204 10.7149 7.82761C7.36515 7.63057 4.40948 6.0542 2.34052 3.68967C1.94643 4.2808 1.74938 4.97046 1.74938 5.66011C1.74938 7.03942 2.43904 8.22165 3.52278 9.00983C2.83312 9.00983 2.24199 8.81278 1.65086 8.51722C1.65086 8.51722 1.65086 8.51725 1.65086 8.61578C1.65086 10.5862 3.03017 12.1626 4.90209 12.5567C4.60652 12.6552 4.21244 12.6552 3.81835 12.6552C3.52278 12.6552 3.32574 12.6552 3.03017 12.5567C3.52278 14.133 5.00061 15.3153 6.77401 15.3153C5.3947 16.399 3.62131 16.9902 1.74938 16.9902C1.45382 16.9902 1.05973 16.9901 0.764163 16.8916C2.53756 18.0739 4.70505 18.665 6.97106 18.665C14.3602 18.665 18.4982 12.5567 18.4982 7.335C18.4982 7.13796 18.4982 6.94091 18.4982 6.84239C19.5819 6.34978 20.2715 5.66012 20.7642 4.87195Z" fill="#26A7DE"/>
</g>
</svg>
