<svg width="26" height="16" viewBox="0 0 26 16" fill="none" xmlns="http://www.w3.org/2000/svg">
<g>
<path fill-rule="evenodd" clip-rule="evenodd" d="M23.1959 11.0496C25.2851 13.1379 25.7121 14.141 25.7731 14.2726C26.6423 15.8183 24.8124 15.9334 24.8124 15.9334L21.3508 15.9827C21.3508 15.9827 20.6036 16.1472 19.6276 15.4237C18.3314 14.4699 17.0962 11.9704 16.1508 12.2828C15.1901 12.6117 15.2206 14.8646 15.2206 14.8646C15.2206 14.8646 15.2206 15.3414 15.0071 15.6045C14.7631 15.8841 14.3056 15.9334 14.3056 15.9334H12.7197C12.7197 15.9334 9.2886 16.1636 6.26925 12.7597C2.9754 9.05983 0.0780436 1.72581 0.0780436 1.72581C0.0780436 1.72581 -0.0896984 1.24893 0.0932928 1.01872C0.291533 0.755613 0.855756 0.739169 0.855756 0.739169L4.56133 0.722725C4.56133 0.722725 4.91206 0.788501 5.15605 0.985829C5.36954 1.13383 5.49153 1.44626 5.49153 1.44626C5.49153 1.44626 6.08626 3.09066 6.87922 4.57062C8.43464 7.44832 9.15136 8.08963 9.68508 7.7772C10.4475 7.31677 10.2188 3.68264 10.2188 3.68264C10.2188 3.68264 10.2341 2.36712 9.83757 1.77514C9.53259 1.31471 8.93787 1.18316 8.67863 1.15027C8.48039 1.11738 8.81588 0.591173 9.2581 0.360958C9.92907 0.0156338 11.1033 -0.0172542 12.5062 -0.000810206C13.5889 0.0156338 13.9091 0.0814097 14.3361 0.196518C15.617 0.525397 15.1901 1.82447 15.1901 4.91594C15.1901 5.90258 15.0223 7.30032 15.678 7.76075C15.9678 7.95808 16.654 7.79364 18.4077 4.60351C19.2311 3.09066 19.8563 1.31471 19.8563 1.31471C19.8563 1.31471 19.9936 0.985829 20.2071 0.854277C20.4206 0.722725 20.7103 0.755613 20.7103 0.755613L24.6294 0.722725C24.6294 0.722725 25.8036 0.574729 26.0018 1.15027C26.2 1.7587 25.5596 3.15644 23.9584 5.44215C21.305 9.22427 21.0153 8.8625 23.1959 11.0496Z" fill="#527FE8"/>
</g>
<defs>

</defs>
</svg>
